<svg xmlns="http://www.w3.org/2000/svg" xmlns:xlink="http://www.w3.org/1999/xlink" width="219" zoomAndPan="magnify" viewBox="0 0 164.25 60.749998" height="81" preserveAspectRatio="xMidYMid meet" version="1.0"><defs><clipPath id="f2e80cd032"><path d="M 92 0.222656 L 107 0.222656 L 107 12 L 92 12 Z M 92 0.222656 " clip-rule="nonzero"/></clipPath><clipPath id="95499ad8dd"><path d="M 88 50 L 111 50 L 111 59.949219 L 88 59.949219 Z M 88 50 " clip-rule="nonzero"/></clipPath><clipPath id="77dfad9db4"><path d="M 85 8 L 163.503906 8 L 163.503906 21 L 85 21 Z M 85 8 " clip-rule="nonzero"/></clipPath><clipPath id="d7aff44928"><path d="M 147 8 L 163.503906 8 L 163.503906 21 L 147 21 Z M 147 8 " clip-rule="nonzero"/></clipPath><clipPath id="ff2cce5b04"><path d="M 83.617188 57 L 139 57 L 139 59.949219 L 83.617188 59.949219 Z M 83.617188 57 " clip-rule="nonzero"/></clipPath><clipPath id="10fbb6fb75"><path d="M 0 6 L 71.671875 6 L 71.671875 60.1875 L 0 60.1875 Z M 0 6 " clip-rule="nonzero"/></clipPath><clipPath id="60d0e7c287"><path d="M 70.84375 38.253906 C 71.070312 38.253906 71.269531 38.171875 71.429688 38.007812 C 71.59375 37.84375 71.671875 37.648438 71.671875 37.417969 L 71.671875 34.054688 C 71.671875 33.824219 71.59375 33.628906 71.429688 33.464844 C 71.269531 33.300781 71.070312 33.222656 70.84375 33.222656 L 69.054688 33.222656 L 69.054688 29.261719 C 69.054688 27.734375 68.695312 26.300781 67.976562 24.957031 L 59.808594 9.667969 C 59.523438 9.136719 59.167969 8.652344 58.75 8.21875 C 58.328125 7.785156 57.855469 7.417969 57.332031 7.117188 C 56.8125 6.816406 56.257812 6.589844 55.671875 6.445312 C 55.089844 6.300781 54.496094 6.238281 53.890625 6.257812 C 53.289062 6.277344 52.703125 6.382812 52.128906 6.566406 C 51.554688 6.753906 51.019531 7.015625 50.519531 7.351562 C 50.015625 7.6875 49.570312 8.089844 49.183594 8.550781 C 48.792969 9.011719 48.472656 9.519531 48.222656 10.070312 L 48.007812 9.667969 C 47.667969 9.03125 47.234375 8.46875 46.707031 7.976562 C 46.179688 7.484375 45.589844 7.09375 44.929688 6.800781 C 44.273438 6.511719 43.585938 6.332031 42.871094 6.273438 C 42.152344 6.210938 41.449219 6.269531 40.75 6.445312 C 40.054688 6.621094 39.402344 6.90625 38.800781 7.300781 C 38.199219 7.695312 37.679688 8.179688 37.234375 8.75 C 36.792969 9.320312 36.457031 9.945312 36.222656 10.628906 C 35.988281 11.3125 35.875 12.015625 35.875 12.738281 L 35.875 33.222656 L 34.1875 33.222656 L 34.1875 29.261719 C 34.1875 27.734375 33.828125 26.300781 33.113281 24.957031 L 24.941406 9.667969 C 24.65625 9.136719 24.304688 8.652344 23.882812 8.21875 C 23.460938 7.785156 22.988281 7.417969 22.46875 7.117188 C 21.945312 6.8125 21.390625 6.589844 20.804688 6.445312 C 20.222656 6.300781 19.628906 6.238281 19.027344 6.257812 C 18.421875 6.277344 17.835938 6.382812 17.261719 6.566406 C 16.6875 6.753906 16.152344 7.015625 15.652344 7.351562 C 15.152344 7.6875 14.707031 8.089844 14.316406 8.550781 C 13.925781 9.011719 13.605469 9.519531 13.355469 10.070312 L 13.140625 9.667969 C 12.808594 9.027344 12.378906 8.457031 11.851562 7.960938 C 11.324219 7.46875 10.734375 7.074219 10.074219 6.78125 C 9.414062 6.488281 8.726562 6.3125 8.007812 6.257812 C 7.289062 6.199219 6.582031 6.261719 5.882812 6.445312 C 5.183594 6.617188 4.53125 6.898438 3.925781 7.289062 C 3.320312 7.683594 2.792969 8.164062 2.351562 8.734375 C 1.90625 9.308594 1.570312 9.9375 1.339844 10.621094 C 1.109375 11.308594 1 12.015625 1.003906 12.738281 L 1.003906 33.222656 L 0.832031 33.222656 C 0.601562 33.222656 0.40625 33.300781 0.246094 33.464844 C 0.0820312 33.628906 0.00390625 33.824219 0.00390625 34.054688 L 0.00390625 37.417969 C 0.00390625 37.648438 0.0820312 37.84375 0.246094 38.007812 C 0.40625 38.171875 0.601562 38.253906 0.832031 38.253906 L 17.957031 38.253906 L 17.957031 55.160156 L 0.832031 55.160156 C 0.601562 55.160156 0.40625 55.242188 0.246094 55.402344 C 0.0820312 55.566406 0.00390625 55.761719 0.00390625 55.996094 L 0.00390625 59.355469 C 0.00390625 59.585938 0.0820312 59.78125 0.246094 59.945312 C 0.40625 60.109375 0.601562 60.191406 0.832031 60.191406 L 70.84375 60.191406 C 71.070312 60.191406 71.269531 60.109375 71.429688 59.945312 C 71.59375 59.78125 71.671875 59.585938 71.671875 59.355469 L 71.671875 55.996094 C 71.671875 55.761719 71.59375 55.566406 71.429688 55.402344 C 71.269531 55.242188 71.070312 55.160156 70.84375 55.160156 L 69.054688 55.160156 L 69.054688 38.253906 Z M 5.4375 33.222656 L 5.4375 12.738281 C 5.4375 11.269531 6.605469 10.855469 6.964844 10.765625 C 7.324219 10.675781 8.546875 10.480469 9.238281 11.777344 L 12.804688 18.453125 L 12.804688 33.222656 Z M 14.46875 33.066406 L 14.46875 21.5625 L 15.574219 23.632812 L 15.574219 33.066406 Z M 17.957031 33.222656 L 17.234375 33.222656 L 17.234375 26.742188 L 17.410156 27.066406 C 17.773438 27.753906 17.957031 28.484375 17.957031 29.261719 Z M 20.726562 58.519531 L 19.621094 58.519531 L 19.621094 29.257812 C 19.617188 28.203125 19.371094 27.207031 18.875 26.277344 L 17.234375 23.210938 L 15.574219 20.101562 L 14.46875 18.03125 L 12.804688 14.921875 L 10.703125 10.984375 C 9.699219 9.109375 7.84375 8.820312 6.558594 9.144531 C 5.273438 9.472656 3.773438 10.609375 3.773438 12.738281 L 3.773438 33.0625 L 2.667969 33.0625 L 2.667969 12.738281 C 2.660156 12.203125 2.742188 11.675781 2.914062 11.167969 C 3.085938 10.65625 3.335938 10.191406 3.664062 9.765625 C 3.996094 9.34375 4.382812 8.984375 4.832031 8.691406 C 5.285156 8.402344 5.769531 8.191406 6.289062 8.066406 C 6.804688 7.929688 7.332031 7.882812 7.867188 7.925781 C 8.398438 7.96875 8.910156 8.097656 9.398438 8.316406 C 9.890625 8.53125 10.332031 8.824219 10.722656 9.191406 C 11.113281 9.558594 11.429688 9.984375 11.679688 10.460938 L 12.808594 12.574219 L 14.46875 15.675781 L 15.574219 17.75 L 17.234375 20.859375 L 19.847656 25.75 C 20.433594 26.84375 20.726562 28.015625 20.726562 29.261719 Z M 29.757812 55.160156 L 22.386719 55.160156 L 22.386719 38.253906 L 29.757812 38.253906 Z M 29.757812 33.222656 L 22.386719 33.222656 L 22.386719 29.261719 C 22.386719 27.734375 22.027344 26.300781 21.3125 24.957031 L 17.234375 17.332031 L 17.234375 12.738281 C 17.234375 11.269531 18.40625 10.855469 18.765625 10.765625 C 19.121094 10.675781 20.347656 10.480469 21.039062 11.777344 L 29.210938 27.066406 C 29.574219 27.753906 29.757812 28.484375 29.757812 29.261719 Z M 32.527344 58.519531 L 31.421875 58.519531 L 31.421875 29.257812 C 31.417969 28.203125 31.171875 27.207031 30.671875 26.277344 L 22.503906 10.984375 C 21.5 9.109375 19.644531 8.820312 18.359375 9.144531 C 17.078125 9.472656 15.574219 10.609375 15.574219 12.738281 L 15.574219 14.21875 L 14.496094 12.203125 C 14.554688 11.691406 14.6875 11.203125 14.902344 10.734375 C 15.113281 10.269531 15.394531 9.847656 15.738281 9.46875 C 16.085938 9.09375 16.484375 8.78125 16.929688 8.53125 C 17.375 8.28125 17.847656 8.105469 18.351562 8.007812 C 18.851562 7.910156 19.355469 7.894531 19.863281 7.960938 C 20.371094 8.027344 20.855469 8.167969 21.316406 8.386719 C 21.777344 8.609375 22.191406 8.894531 22.5625 9.25 C 22.933594 9.605469 23.238281 10.007812 23.480469 10.460938 L 31.648438 25.75 C 32.234375 26.84375 32.527344 28.015625 32.527344 29.261719 Z M 40.304688 33.222656 L 40.304688 12.738281 C 40.304688 11.269531 41.472656 10.855469 41.832031 10.765625 C 42.191406 10.675781 43.414062 10.480469 44.105469 11.777344 L 47.671875 18.449219 L 47.671875 33.222656 Z M 49.332031 33.066406 L 49.332031 21.558594 L 50.441406 23.632812 L 50.441406 33.066406 Z M 52.824219 55.160156 L 34.1875 55.160156 L 34.1875 38.253906 L 52.824219 38.253906 Z M 52.824219 33.222656 L 52.101562 33.222656 L 52.101562 26.742188 L 52.277344 27.066406 C 52.640625 27.753906 52.824219 28.484375 52.824219 29.261719 Z M 55.59375 58.519531 L 54.488281 58.519531 L 54.488281 29.257812 C 54.484375 28.203125 54.238281 27.207031 53.742188 26.277344 L 52.101562 23.210938 L 50.441406 20.101562 L 49.332031 18.03125 L 47.671875 14.921875 L 45.570312 10.984375 C 44.566406 9.109375 42.710938 8.824219 41.425781 9.148438 C 40.140625 9.472656 38.640625 10.609375 38.640625 12.738281 L 38.640625 33.066406 L 37.535156 33.066406 L 37.535156 12.738281 C 37.535156 12.203125 37.621094 11.679688 37.796875 11.175781 C 37.96875 10.667969 38.21875 10.203125 38.546875 9.777344 C 38.875 9.355469 39.261719 8.996094 39.710938 8.703125 C 40.15625 8.410156 40.640625 8.199219 41.15625 8.066406 C 41.675781 7.9375 42.199219 7.894531 42.730469 7.941406 C 43.261719 7.984375 43.773438 8.117188 44.261719 8.332031 C 44.75 8.550781 45.1875 8.839844 45.578125 9.203125 C 45.972656 9.570312 46.292969 9.988281 46.546875 10.460938 L 47.675781 12.574219 L 49.332031 15.675781 L 50.441406 17.75 L 52.101562 20.859375 L 54.714844 25.75 C 55.300781 26.84375 55.59375 28.015625 55.59375 29.261719 Z M 64.625 55.160156 L 57.253906 55.160156 L 57.253906 38.253906 L 64.625 38.253906 Z M 64.625 33.222656 L 57.253906 33.222656 L 57.253906 29.261719 C 57.253906 27.734375 56.894531 26.300781 56.179688 24.957031 L 52.101562 17.332031 L 52.101562 12.738281 C 52.101562 11.269531 53.273438 10.855469 53.632812 10.765625 C 53.992188 10.675781 55.214844 10.480469 55.90625 11.777344 L 64.078125 27.066406 C 64.441406 27.753906 64.625 28.484375 64.625 29.261719 Z M 67.394531 58.519531 L 66.285156 58.519531 L 66.285156 29.257812 C 66.285156 28.203125 66.035156 27.207031 65.539062 26.277344 L 57.371094 10.984375 C 56.367188 9.109375 54.511719 8.820312 53.226562 9.144531 C 51.941406 9.472656 50.441406 10.609375 50.441406 12.738281 L 50.441406 14.21875 L 49.363281 12.203125 C 49.421875 11.691406 49.554688 11.203125 49.765625 10.734375 C 49.980469 10.269531 50.257812 9.847656 50.605469 9.46875 C 50.953125 9.09375 51.347656 8.78125 51.796875 8.53125 C 52.242188 8.28125 52.714844 8.105469 53.21875 8.007812 C 53.71875 7.914062 54.222656 7.894531 54.730469 7.960938 C 55.234375 8.027344 55.71875 8.167969 56.179688 8.386719 C 56.644531 8.609375 57.058594 8.894531 57.429688 9.25 C 57.796875 9.605469 58.105469 10.007812 58.347656 10.460938 L 66.515625 25.75 C 67.101562 26.84375 67.394531 28.015625 67.394531 29.261719 Z M 67.394531 58.519531 " clip-rule="nonzero"/></clipPath><linearGradient x1="27.547346" gradientTransform="matrix(0.138436, 0, 0, 0.139211, 0.00211175, 6.241617)" y1="-23.21718" x2="429.885882" gradientUnits="userSpaceOnUse" y2="460.546346" id="8a94317a52"><stop stop-opacity="1" stop-color="rgb(82.617188%, 20.262146%, 85.162354%)" offset="0"/><stop stop-opacity="1" stop-color="rgb(82.313538%, 20.535278%, 85.221863%)" offset="0.00390625"/><stop stop-opacity="1" stop-color="rgb(82.011414%, 20.808411%, 85.281372%)" offset="0.0078125"/><stop stop-opacity="1" stop-color="rgb(81.707764%, 21.081543%, 85.340881%)" offset="0.0117188"/><stop stop-opacity="1" stop-color="rgb(81.40564%, 21.354675%, 85.401917%)" offset="0.015625"/><stop stop-opacity="1" stop-color="rgb(81.10199%, 21.627808%, 85.461426%)" offset="0.0195313"/><stop stop-opacity="1" stop-color="rgb(80.799866%, 21.90094%, 85.520935%)" offset="0.0234375"/><stop stop-opacity="1" stop-color="rgb(80.497742%, 22.174072%, 85.580444%)" offset="0.0273438"/><stop stop-opacity="1" stop-color="rgb(80.195618%, 22.44873%, 85.641479%)" offset="0.03125"/><stop stop-opacity="1" stop-color="rgb(79.891968%, 22.721863%, 85.700989%)" offset="0.0351563"/><stop stop-opacity="1" stop-color="rgb(79.589844%, 22.994995%, 85.760498%)" offset="0.0390625"/><stop stop-opacity="1" stop-color="rgb(79.286194%, 23.268127%, 85.820007%)" offset="0.0429687"/><stop stop-opacity="1" stop-color="rgb(78.98407%, 23.54126%, 85.881042%)" offset="0.046875"/><stop stop-opacity="1" stop-color="rgb(78.68042%, 23.814392%, 85.940552%)" offset="0.0507813"/><stop stop-opacity="1" stop-color="rgb(78.378296%, 24.087524%, 86.000061%)" offset="0.0546875"/><stop stop-opacity="1" stop-color="rgb(78.076172%, 24.360657%, 86.05957%)" offset="0.0585937"/><stop stop-opacity="1" stop-color="rgb(77.774048%, 24.635315%, 86.120605%)" offset="0.0625"/><stop stop-opacity="1" stop-color="rgb(77.470398%, 24.908447%, 86.180115%)" offset="0.0664063"/><stop stop-opacity="1" stop-color="rgb(77.168274%, 25.18158%, 86.239624%)" offset="0.0703125"/><stop stop-opacity="1" stop-color="rgb(76.864624%, 25.454712%, 86.299133%)" offset="0.0742187"/><stop stop-opacity="1" stop-color="rgb(76.5625%, 25.727844%, 86.360168%)" offset="0.078125"/><stop stop-opacity="1" stop-color="rgb(76.25885%, 26.000977%, 86.419678%)" offset="0.0820313"/><stop stop-opacity="1" stop-color="rgb(75.956726%, 26.274109%, 86.479187%)" offset="0.0859375"/><stop stop-opacity="1" stop-color="rgb(75.653076%, 26.547241%, 86.538696%)" offset="0.0898437"/><stop stop-opacity="1" stop-color="rgb(75.350952%, 26.821899%, 86.599731%)" offset="0.09375"/><stop stop-opacity="1" stop-color="rgb(75.048828%, 27.095032%, 86.659241%)" offset="0.0976563"/><stop stop-opacity="1" stop-color="rgb(74.746704%, 27.368164%, 86.71875%)" offset="0.101563"/><stop stop-opacity="1" stop-color="rgb(74.443054%, 27.641296%, 86.778259%)" offset="0.105469"/><stop stop-opacity="1" stop-color="rgb(74.14093%, 27.914429%, 86.839294%)" offset="0.109375"/><stop stop-opacity="1" stop-color="rgb(73.83728%, 28.187561%, 86.898804%)" offset="0.113281"/><stop stop-opacity="1" stop-color="rgb(73.535156%, 28.460693%, 86.958313%)" offset="0.117188"/><stop stop-opacity="1" stop-color="rgb(73.231506%, 28.733826%, 87.017822%)" offset="0.121094"/><stop stop-opacity="1" stop-color="rgb(72.929382%, 29.008484%, 87.078857%)" offset="0.125"/><stop stop-opacity="1" stop-color="rgb(72.627258%, 29.281616%, 87.138367%)" offset="0.128906"/><stop stop-opacity="1" stop-color="rgb(72.325134%, 29.554749%, 87.197876%)" offset="0.132813"/><stop stop-opacity="1" stop-color="rgb(72.021484%, 29.827881%, 87.257385%)" offset="0.136719"/><stop stop-opacity="1" stop-color="rgb(71.71936%, 30.101013%, 87.31842%)" offset="0.140625"/><stop stop-opacity="1" stop-color="rgb(71.41571%, 30.374146%, 87.37793%)" offset="0.144531"/><stop stop-opacity="1" stop-color="rgb(71.113586%, 30.647278%, 87.437439%)" offset="0.148438"/><stop stop-opacity="1" stop-color="rgb(70.809937%, 30.92041%, 87.496948%)" offset="0.152344"/><stop stop-opacity="1" stop-color="rgb(70.507812%, 31.195068%, 87.557983%)" offset="0.15625"/><stop stop-opacity="1" stop-color="rgb(70.204163%, 31.468201%, 87.617493%)" offset="0.160156"/><stop stop-opacity="1" stop-color="rgb(69.902039%, 31.741333%, 87.677002%)" offset="0.164062"/><stop stop-opacity="1" stop-color="rgb(69.599915%, 32.014465%, 87.736511%)" offset="0.167969"/><stop stop-opacity="1" stop-color="rgb(69.297791%, 32.287598%, 87.797546%)" offset="0.171875"/><stop stop-opacity="1" stop-color="rgb(68.994141%, 32.56073%, 87.857056%)" offset="0.175781"/><stop stop-opacity="1" stop-color="rgb(68.692017%, 32.833862%, 87.916565%)" offset="0.179688"/><stop stop-opacity="1" stop-color="rgb(68.388367%, 33.106995%, 87.976074%)" offset="0.183594"/><stop stop-opacity="1" stop-color="rgb(68.086243%, 33.381653%, 88.037109%)" offset="0.1875"/><stop stop-opacity="1" stop-color="rgb(67.782593%, 33.654785%, 88.096619%)" offset="0.191406"/><stop stop-opacity="1" stop-color="rgb(67.480469%, 33.927917%, 88.156128%)" offset="0.195312"/><stop stop-opacity="1" stop-color="rgb(67.178345%, 34.20105%, 88.215637%)" offset="0.199219"/><stop stop-opacity="1" stop-color="rgb(66.876221%, 34.474182%, 88.276672%)" offset="0.203125"/><stop stop-opacity="1" stop-color="rgb(66.572571%, 34.747314%, 88.336182%)" offset="0.207031"/><stop stop-opacity="1" stop-color="rgb(66.270447%, 35.020447%, 88.395691%)" offset="0.210938"/><stop stop-opacity="1" stop-color="rgb(65.966797%, 35.293579%, 88.4552%)" offset="0.214844"/><stop stop-opacity="1" stop-color="rgb(65.664673%, 35.568237%, 88.516235%)" offset="0.21875"/><stop stop-opacity="1" stop-color="rgb(65.361023%, 35.84137%, 88.575745%)" offset="0.222656"/><stop stop-opacity="1" stop-color="rgb(65.058899%, 36.114502%, 88.635254%)" offset="0.226562"/><stop stop-opacity="1" stop-color="rgb(64.755249%, 36.387634%, 88.694763%)" offset="0.230469"/><stop stop-opacity="1" stop-color="rgb(64.453125%, 36.660767%, 88.755798%)" offset="0.234375"/><stop stop-opacity="1" stop-color="rgb(64.151001%, 36.933899%, 88.815308%)" offset="0.238281"/><stop stop-opacity="1" stop-color="rgb(63.848877%, 37.207031%, 88.874817%)" offset="0.242188"/><stop stop-opacity="1" stop-color="rgb(63.545227%, 37.480164%, 88.934326%)" offset="0.246094"/><stop stop-opacity="1" stop-color="rgb(63.243103%, 37.753296%, 88.995361%)" offset="0.25"/><stop stop-opacity="1" stop-color="rgb(62.939453%, 38.026428%, 89.054871%)" offset="0.253906"/><stop stop-opacity="1" stop-color="rgb(62.637329%, 38.301086%, 89.11438%)" offset="0.257812"/><stop stop-opacity="1" stop-color="rgb(62.333679%, 38.574219%, 89.173889%)" offset="0.261719"/><stop stop-opacity="1" stop-color="rgb(62.031555%, 38.847351%, 89.234924%)" offset="0.265625"/><stop stop-opacity="1" stop-color="rgb(61.729431%, 39.120483%, 89.294434%)" offset="0.269531"/><stop stop-opacity="1" stop-color="rgb(61.427307%, 39.393616%, 89.353943%)" offset="0.273438"/><stop stop-opacity="1" stop-color="rgb(61.106873%, 39.683533%, 89.41803%)" offset="0.277344"/><stop stop-opacity="1" stop-color="rgb(60.787964%, 39.97345%, 89.483643%)" offset="0.28125"/><stop stop-opacity="1" stop-color="rgb(60.458374%, 40.274048%, 89.550781%)" offset="0.285156"/><stop stop-opacity="1" stop-color="rgb(60.128784%, 40.574646%, 89.619446%)" offset="0.289062"/><stop stop-opacity="1" stop-color="rgb(59.799194%, 40.873718%, 89.686584%)" offset="0.292969"/><stop stop-opacity="1" stop-color="rgb(59.469604%, 41.174316%, 89.753723%)" offset="0.296875"/><stop stop-opacity="1" stop-color="rgb(59.140015%, 41.474915%, 89.820862%)" offset="0.300781"/><stop stop-opacity="1" stop-color="rgb(58.810425%, 41.775513%, 89.889526%)" offset="0.304688"/><stop stop-opacity="1" stop-color="rgb(58.480835%, 42.074585%, 89.956665%)" offset="0.308594"/><stop stop-opacity="1" stop-color="rgb(58.151245%, 42.375183%, 90.023804%)" offset="0.3125"/><stop stop-opacity="1" stop-color="rgb(57.821655%, 42.675781%, 90.090942%)" offset="0.316406"/><stop stop-opacity="1" stop-color="rgb(57.492065%, 42.976379%, 90.159607%)" offset="0.320312"/><stop stop-opacity="1" stop-color="rgb(57.162476%, 43.276978%, 90.226746%)" offset="0.324219"/><stop stop-opacity="1" stop-color="rgb(56.834412%, 43.577576%, 90.293884%)" offset="0.328125"/><stop stop-opacity="1" stop-color="rgb(56.504822%, 43.876648%, 90.361023%)" offset="0.332031"/><stop stop-opacity="1" stop-color="rgb(56.175232%, 44.177246%, 90.429688%)" offset="0.335938"/><stop stop-opacity="1" stop-color="rgb(55.845642%, 44.477844%, 90.496826%)" offset="0.339844"/><stop stop-opacity="1" stop-color="rgb(55.516052%, 44.778442%, 90.563965%)" offset="0.34375"/><stop stop-opacity="1" stop-color="rgb(55.186462%, 45.077515%, 90.631104%)" offset="0.347656"/><stop stop-opacity="1" stop-color="rgb(54.856873%, 45.378113%, 90.699768%)" offset="0.351562"/><stop stop-opacity="1" stop-color="rgb(54.527283%, 45.678711%, 90.766907%)" offset="0.355469"/><stop stop-opacity="1" stop-color="rgb(54.197693%, 45.979309%, 90.834045%)" offset="0.359375"/><stop stop-opacity="1" stop-color="rgb(53.868103%, 46.278381%, 90.901184%)" offset="0.363281"/><stop stop-opacity="1" stop-color="rgb(53.538513%, 46.578979%, 90.969849%)" offset="0.367188"/><stop stop-opacity="1" stop-color="rgb(53.208923%, 46.879578%, 91.036987%)" offset="0.371094"/><stop stop-opacity="1" stop-color="rgb(52.879333%, 47.180176%, 91.104126%)" offset="0.375"/><stop stop-opacity="1" stop-color="rgb(52.549744%, 47.479248%, 91.171265%)" offset="0.378906"/><stop stop-opacity="1" stop-color="rgb(52.220154%, 47.779846%, 91.239929%)" offset="0.382812"/><stop stop-opacity="1" stop-color="rgb(51.890564%, 48.080444%, 91.307068%)" offset="0.386719"/><stop stop-opacity="1" stop-color="rgb(51.5625%, 48.381042%, 91.375732%)" offset="0.390625"/><stop stop-opacity="1" stop-color="rgb(51.23291%, 48.680115%, 91.442871%)" offset="0.394531"/><stop stop-opacity="1" stop-color="rgb(50.90332%, 48.980713%, 91.51001%)" offset="0.398438"/><stop stop-opacity="1" stop-color="rgb(50.57373%, 49.281311%, 91.577148%)" offset="0.402344"/><stop stop-opacity="1" stop-color="rgb(50.244141%, 49.581909%, 91.645813%)" offset="0.40625"/><stop stop-opacity="1" stop-color="rgb(49.914551%, 49.880981%, 91.712952%)" offset="0.410156"/><stop stop-opacity="1" stop-color="rgb(49.584961%, 50.18158%, 91.78009%)" offset="0.414062"/><stop stop-opacity="1" stop-color="rgb(49.255371%, 50.482178%, 91.847229%)" offset="0.417969"/><stop stop-opacity="1" stop-color="rgb(48.925781%, 50.782776%, 91.915894%)" offset="0.421875"/><stop stop-opacity="1" stop-color="rgb(48.596191%, 51.081848%, 91.983032%)" offset="0.425781"/><stop stop-opacity="1" stop-color="rgb(48.266602%, 51.382446%, 92.050171%)" offset="0.429688"/><stop stop-opacity="1" stop-color="rgb(47.937012%, 51.683044%, 92.11731%)" offset="0.433594"/><stop stop-opacity="1" stop-color="rgb(47.607422%, 51.983643%, 92.185974%)" offset="0.4375"/><stop stop-opacity="1" stop-color="rgb(47.277832%, 52.282715%, 92.253113%)" offset="0.441406"/><stop stop-opacity="1" stop-color="rgb(46.948242%, 52.583313%, 92.320251%)" offset="0.445312"/><stop stop-opacity="1" stop-color="rgb(46.618652%, 52.883911%, 92.38739%)" offset="0.449219"/><stop stop-opacity="1" stop-color="rgb(46.290588%, 53.184509%, 92.456055%)" offset="0.453125"/><stop stop-opacity="1" stop-color="rgb(45.960999%, 53.483582%, 92.523193%)" offset="0.457031"/><stop stop-opacity="1" stop-color="rgb(45.631409%, 53.78418%, 92.590332%)" offset="0.460938"/><stop stop-opacity="1" stop-color="rgb(45.301819%, 54.084778%, 92.657471%)" offset="0.464844"/><stop stop-opacity="1" stop-color="rgb(44.972229%, 54.385376%, 92.726135%)" offset="0.46875"/><stop stop-opacity="1" stop-color="rgb(44.642639%, 54.684448%, 92.793274%)" offset="0.472656"/><stop stop-opacity="1" stop-color="rgb(44.313049%, 54.985046%, 92.860413%)" offset="0.476562"/><stop stop-opacity="1" stop-color="rgb(43.983459%, 55.285645%, 92.927551%)" offset="0.480469"/><stop stop-opacity="1" stop-color="rgb(43.65387%, 55.586243%, 92.996216%)" offset="0.484375"/><stop stop-opacity="1" stop-color="rgb(43.32428%, 55.885315%, 93.063354%)" offset="0.488281"/><stop stop-opacity="1" stop-color="rgb(42.99469%, 56.185913%, 93.132019%)" offset="0.492188"/><stop stop-opacity="1" stop-color="rgb(42.6651%, 56.486511%, 93.199158%)" offset="0.496094"/><stop stop-opacity="1" stop-color="rgb(42.33551%, 56.787109%, 93.266296%)" offset="0.5"/><stop stop-opacity="1" stop-color="rgb(42.00592%, 57.086182%, 93.333435%)" offset="0.503906"/><stop stop-opacity="1" stop-color="rgb(41.676331%, 57.38678%, 93.4021%)" offset="0.507812"/><stop stop-opacity="1" stop-color="rgb(41.346741%, 57.687378%, 93.469238%)" offset="0.511719"/><stop stop-opacity="1" stop-color="rgb(41.018677%, 57.987976%, 93.536377%)" offset="0.515625"/><stop stop-opacity="1" stop-color="rgb(40.689087%, 58.287048%, 93.603516%)" offset="0.519531"/><stop stop-opacity="1" stop-color="rgb(40.359497%, 58.587646%, 93.67218%)" offset="0.523438"/><stop stop-opacity="1" stop-color="rgb(40.029907%, 58.888245%, 93.739319%)" offset="0.527344"/><stop stop-opacity="1" stop-color="rgb(39.700317%, 59.188843%, 93.806458%)" offset="0.53125"/><stop stop-opacity="1" stop-color="rgb(39.370728%, 59.487915%, 93.873596%)" offset="0.535156"/><stop stop-opacity="1" stop-color="rgb(39.041138%, 59.788513%, 93.942261%)" offset="0.539063"/><stop stop-opacity="1" stop-color="rgb(38.711548%, 60.089111%, 94.009399%)" offset="0.542969"/><stop stop-opacity="1" stop-color="rgb(38.381958%, 60.389709%, 94.076538%)" offset="0.546875"/><stop stop-opacity="1" stop-color="rgb(38.052368%, 60.688782%, 94.143677%)" offset="0.550781"/><stop stop-opacity="1" stop-color="rgb(37.722778%, 60.98938%, 94.212341%)" offset="0.554688"/><stop stop-opacity="1" stop-color="rgb(37.393188%, 61.289978%, 94.27948%)" offset="0.558594"/><stop stop-opacity="1" stop-color="rgb(37.063599%, 61.590576%, 94.346619%)" offset="0.5625"/><stop stop-opacity="1" stop-color="rgb(36.734009%, 61.889648%, 94.413757%)" offset="0.566406"/><stop stop-opacity="1" stop-color="rgb(36.404419%, 62.190247%, 94.482422%)" offset="0.570313"/><stop stop-opacity="1" stop-color="rgb(36.074829%, 62.490845%, 94.549561%)" offset="0.574219"/><stop stop-opacity="1" stop-color="rgb(35.746765%, 62.791443%, 94.616699%)" offset="0.578125"/><stop stop-opacity="1" stop-color="rgb(35.417175%, 63.090515%, 94.683838%)" offset="0.582031"/><stop stop-opacity="1" stop-color="rgb(35.087585%, 63.391113%, 94.752502%)" offset="0.585938"/><stop stop-opacity="1" stop-color="rgb(34.757996%, 63.691711%, 94.819641%)" offset="0.589844"/><stop stop-opacity="1" stop-color="rgb(34.428406%, 63.99231%, 94.888306%)" offset="0.59375"/><stop stop-opacity="1" stop-color="rgb(34.098816%, 64.291382%, 94.955444%)" offset="0.597656"/><stop stop-opacity="1" stop-color="rgb(33.769226%, 64.59198%, 95.022583%)" offset="0.601563"/><stop stop-opacity="1" stop-color="rgb(33.439636%, 64.892578%, 95.089722%)" offset="0.605469"/><stop stop-opacity="1" stop-color="rgb(33.110046%, 65.193176%, 95.158386%)" offset="0.609375"/><stop stop-opacity="1" stop-color="rgb(32.780457%, 65.492249%, 95.225525%)" offset="0.613281"/><stop stop-opacity="1" stop-color="rgb(32.450867%, 65.792847%, 95.292664%)" offset="0.617188"/><stop stop-opacity="1" stop-color="rgb(32.121277%, 66.093445%, 95.359802%)" offset="0.621094"/><stop stop-opacity="1" stop-color="rgb(31.791687%, 66.394043%, 95.428467%)" offset="0.625"/><stop stop-opacity="1" stop-color="rgb(31.462097%, 66.693115%, 95.495605%)" offset="0.628906"/><stop stop-opacity="1" stop-color="rgb(31.132507%, 66.993713%, 95.562744%)" offset="0.632813"/><stop stop-opacity="1" stop-color="rgb(30.802917%, 67.294312%, 95.629883%)" offset="0.636719"/><stop stop-opacity="1" stop-color="rgb(30.474854%, 67.59491%, 95.698547%)" offset="0.640625"/><stop stop-opacity="1" stop-color="rgb(30.145264%, 67.893982%, 95.765686%)" offset="0.644531"/><stop stop-opacity="1" stop-color="rgb(29.815674%, 68.19458%, 95.832825%)" offset="0.648438"/><stop stop-opacity="1" stop-color="rgb(29.486084%, 68.495178%, 95.899963%)" offset="0.652344"/><stop stop-opacity="1" stop-color="rgb(29.156494%, 68.795776%, 95.968628%)" offset="0.65625"/><stop stop-opacity="1" stop-color="rgb(28.826904%, 69.094849%, 96.035767%)" offset="0.660156"/><stop stop-opacity="1" stop-color="rgb(28.497314%, 69.395447%, 96.102905%)" offset="0.664063"/><stop stop-opacity="1" stop-color="rgb(28.167725%, 69.696045%, 96.170044%)" offset="0.667969"/><stop stop-opacity="1" stop-color="rgb(27.838135%, 69.996643%, 96.238708%)" offset="0.671875"/><stop stop-opacity="1" stop-color="rgb(27.508545%, 70.295715%, 96.305847%)" offset="0.675781"/><stop stop-opacity="1" stop-color="rgb(27.178955%, 70.596313%, 96.372986%)" offset="0.679688"/><stop stop-opacity="1" stop-color="rgb(26.849365%, 70.896912%, 96.440125%)" offset="0.683594"/><stop stop-opacity="1" stop-color="rgb(26.519775%, 71.19751%, 96.508789%)" offset="0.6875"/><stop stop-opacity="1" stop-color="rgb(26.190186%, 71.496582%, 96.575928%)" offset="0.691406"/><stop stop-opacity="1" stop-color="rgb(25.860596%, 71.79718%, 96.644592%)" offset="0.695313"/><stop stop-opacity="1" stop-color="rgb(25.531006%, 72.097778%, 96.711731%)" offset="0.699219"/><stop stop-opacity="1" stop-color="rgb(25.201416%, 72.398376%, 96.77887%)" offset="0.703125"/><stop stop-opacity="1" stop-color="rgb(24.871826%, 72.698975%, 96.846008%)" offset="0.707031"/><stop stop-opacity="1" stop-color="rgb(24.543762%, 72.999573%, 96.914673%)" offset="0.710938"/><stop stop-opacity="1" stop-color="rgb(24.214172%, 73.298645%, 96.981812%)" offset="0.714844"/><stop stop-opacity="1" stop-color="rgb(23.884583%, 73.599243%, 97.04895%)" offset="0.71875"/><stop stop-opacity="1" stop-color="rgb(23.554993%, 73.899841%, 97.116089%)" offset="0.722656"/><stop stop-opacity="1" stop-color="rgb(23.225403%, 74.200439%, 97.184753%)" offset="0.726563"/><stop stop-opacity="1" stop-color="rgb(22.895813%, 74.499512%, 97.251892%)" offset="0.730469"/><stop stop-opacity="1" stop-color="rgb(22.566223%, 74.80011%, 97.319031%)" offset="0.734375"/><stop stop-opacity="1" stop-color="rgb(22.236633%, 75.100708%, 97.386169%)" offset="0.738281"/><stop stop-opacity="1" stop-color="rgb(21.907043%, 75.401306%, 97.454834%)" offset="0.742188"/><stop stop-opacity="1" stop-color="rgb(21.577454%, 75.700378%, 97.521973%)" offset="0.746094"/><stop stop-opacity="1" stop-color="rgb(21.247864%, 76.000977%, 97.589111%)" offset="0.75"/><stop stop-opacity="1" stop-color="rgb(20.918274%, 76.301575%, 97.65625%)" offset="0.753906"/><stop stop-opacity="1" stop-color="rgb(20.588684%, 76.602173%, 97.724915%)" offset="0.757813"/><stop stop-opacity="1" stop-color="rgb(20.259094%, 76.901245%, 97.792053%)" offset="0.761719"/><stop stop-opacity="1" stop-color="rgb(19.929504%, 77.201843%, 97.859192%)" offset="0.765625"/><stop stop-opacity="1" stop-color="rgb(19.599915%, 77.502441%, 97.926331%)" offset="0.769531"/><stop stop-opacity="1" stop-color="rgb(19.271851%, 77.80304%, 97.994995%)" offset="0.773438"/><stop stop-opacity="1" stop-color="rgb(18.942261%, 78.102112%, 98.062134%)" offset="0.777344"/><stop stop-opacity="1" stop-color="rgb(18.612671%, 78.40271%, 98.130798%)" offset="0.78125"/><stop stop-opacity="1" stop-color="rgb(18.283081%, 78.703308%, 98.197937%)" offset="0.785156"/><stop stop-opacity="1" stop-color="rgb(17.953491%, 79.003906%, 98.265076%)" offset="0.789063"/><stop stop-opacity="1" stop-color="rgb(17.623901%, 79.302979%, 98.332214%)" offset="0.792969"/><stop stop-opacity="1" stop-color="rgb(17.294312%, 79.603577%, 98.400879%)" offset="0.796875"/><stop stop-opacity="1" stop-color="rgb(16.941833%, 79.919434%, 98.471069%)" offset="0.800781"/><stop stop-opacity="1" stop-color="rgb(16.589355%, 80.236816%, 98.542786%)" offset="0.804688"/><stop stop-opacity="1" stop-color="rgb(16.236877%, 80.552673%, 98.612976%)" offset="0.808594"/><stop stop-opacity="1" stop-color="rgb(15.885925%, 80.86853%, 98.684692%)" offset="0.8125"/><stop stop-opacity="1" stop-color="rgb(15.533447%, 81.184387%, 98.756409%)" offset="0.816406"/><stop stop-opacity="1" stop-color="rgb(15.182495%, 81.50177%, 98.828125%)" offset="0.820313"/><stop stop-opacity="1" stop-color="rgb(14.830017%, 81.817627%, 98.898315%)" offset="0.824219"/><stop stop-opacity="1" stop-color="rgb(14.479065%, 82.133484%, 98.970032%)" offset="0.828125"/><stop stop-opacity="1" stop-color="rgb(14.126587%, 82.449341%, 99.041748%)" offset="0.832031"/><stop stop-opacity="1" stop-color="rgb(13.774109%, 82.766724%, 99.113464%)" offset="0.835938"/><stop stop-opacity="1" stop-color="rgb(13.421631%, 83.082581%, 99.183655%)" offset="0.839844"/><stop stop-opacity="1" stop-color="rgb(13.070679%, 83.399963%, 99.255371%)" offset="0.84375"/><stop stop-opacity="1" stop-color="rgb(12.718201%, 83.71582%, 99.327087%)" offset="0.847656"/><stop stop-opacity="1" stop-color="rgb(12.367249%, 84.031677%, 99.398804%)" offset="0.851563"/><stop stop-opacity="1" stop-color="rgb(12.014771%, 84.347534%, 99.468994%)" offset="0.855469"/><stop stop-opacity="1" stop-color="rgb(11.663818%, 84.664917%, 99.54071%)" offset="0.859375"/><stop stop-opacity="1" stop-color="rgb(11.31134%, 84.980774%, 99.610901%)" offset="0.863281"/><stop stop-opacity="1" stop-color="rgb(10.958862%, 85.296631%, 99.682617%)" offset="0.867188"/><stop stop-opacity="1" stop-color="rgb(10.606384%, 85.612488%, 99.754333%)" offset="0.871094"/><stop stop-opacity="1" stop-color="rgb(10.255432%, 85.929871%, 99.82605%)" offset="0.875"/><stop stop-opacity="1" stop-color="rgb(9.902954%, 86.245728%, 99.89624%)" offset="0.878906"/><stop stop-opacity="1" stop-color="rgb(9.552002%, 86.561584%, 99.967957%)" offset="0.882813"/><stop stop-opacity="1" stop-color="rgb(9.475708%, 86.630249%, 99.983215%)" offset="0.890625"/><stop stop-opacity="1" stop-color="rgb(9.399414%, 86.698914%, 100%)" offset="0.90625"/><stop stop-opacity="1" stop-color="rgb(9.399414%, 86.698914%, 100%)" offset="0.9375"/><stop stop-opacity="1" stop-color="rgb(9.399414%, 86.698914%, 100%)" offset="1"/></linearGradient></defs><g clip-path="url(#f2e80cd032)"><path fill="#ff66c4" d="M 105.488281 11.121094 L 93.433594 11.121094 C 92.777344 11.121094 92.242188 10.589844 92.242188 9.933594 L 92.242188 7.4375 C 92.242188 3.46875 95.480469 0.242188 99.460938 0.242188 C 103.441406 0.242188 106.683594 3.46875 106.683594 7.4375 L 106.683594 9.933594 C 106.683594 10.589844 106.148438 11.121094 105.488281 11.121094 Z M 94.625 8.746094 L 104.296875 8.746094 L 104.296875 7.4375 C 104.296875 4.777344 102.128906 2.613281 99.460938 2.613281 C 96.796875 2.613281 94.625 4.777344 94.625 7.4375 Z M 94.625 8.746094 " fill-opacity="1" fill-rule="nonzero"/></g><path fill="#ff66c4" d="M 105.488281 52.808594 L 93.433594 52.808594 C 92.777344 52.808594 92.242188 52.277344 92.242188 51.621094 L 92.242188 19.421875 C 92.242188 18.765625 92.777344 18.234375 93.433594 18.234375 L 105.488281 18.234375 C 106.148438 18.234375 106.683594 18.765625 106.683594 19.421875 L 106.683594 51.621094 C 106.683594 52.277344 106.148438 52.808594 105.488281 52.808594 Z M 94.625 50.433594 L 104.296875 50.433594 L 104.296875 20.609375 L 94.625 20.609375 Z M 94.625 50.433594 " fill-opacity="1" fill-rule="nonzero"/><g clip-path="url(#95499ad8dd)"><path fill="#ff66c4" d="M 109.570312 59.929688 L 89.351562 59.929688 C 88.695312 59.929688 88.160156 59.398438 88.160156 58.742188 L 88.160156 51.621094 C 88.160156 50.964844 88.695312 50.433594 89.351562 50.433594 L 109.570312 50.433594 C 110.230469 50.433594 110.761719 50.964844 110.761719 51.621094 L 110.761719 58.742188 C 110.761719 59.398438 110.230469 59.929688 109.570312 59.929688 Z M 90.546875 57.554688 L 108.378906 57.554688 L 108.378906 52.808594 L 90.546875 52.808594 Z M 90.546875 57.554688 " fill-opacity="1" fill-rule="nonzero"/></g><g clip-path="url(#77dfad9db4)"><path fill="#ff66c4" d="M 162.152344 20.609375 L 86.355469 20.609375 C 85.699219 20.609375 85.164062 20.078125 85.164062 19.421875 L 85.164062 9.933594 C 85.164062 9.277344 85.699219 8.746094 86.355469 8.746094 L 162.152344 8.746094 C 162.8125 8.746094 163.34375 9.277344 163.34375 9.933594 L 163.34375 19.421875 C 163.34375 20.078125 162.8125 20.609375 162.152344 20.609375 Z M 87.546875 18.234375 L 160.960938 18.234375 L 160.960938 11.121094 L 87.546875 11.121094 Z M 87.546875 18.234375 " fill-opacity="1" fill-rule="nonzero"/></g><path fill="#ff66c4" d="M 86.359375 20.609375 C 85.976562 20.609375 85.609375 20.429688 85.375 20.097656 C 85 19.558594 85.136719 18.820312 85.679688 18.445312 L 99.457031 8.957031 C 99.996094 8.578125 100.734375 8.71875 101.113281 9.257812 C 101.488281 9.796875 101.351562 10.535156 100.808594 10.910156 L 87.03125 20.398438 C 86.828125 20.542969 86.589844 20.609375 86.359375 20.609375 Z M 86.359375 20.609375 " fill-opacity="1" fill-rule="nonzero"/><path fill="#ff66c4" d="M 101.863281 20.609375 C 101.480469 20.609375 101.113281 20.429688 100.878906 20.097656 C 100.503906 19.558594 100.640625 18.820312 101.183594 18.445312 L 114.960938 8.957031 C 115.5 8.578125 116.242188 8.71875 116.617188 9.257812 C 116.992188 9.796875 116.855469 10.535156 116.3125 10.910156 L 102.535156 20.398438 C 102.332031 20.542969 102.09375 20.609375 101.863281 20.609375 Z M 101.863281 20.609375 " fill-opacity="1" fill-rule="nonzero"/><path fill="#ff66c4" d="M 117.367188 20.609375 C 116.988281 20.609375 116.617188 20.429688 116.382812 20.097656 C 116.011719 19.558594 116.144531 18.820312 116.6875 18.445312 L 130.46875 8.957031 C 131.007812 8.578125 131.75 8.71875 132.125 9.257812 C 132.496094 9.796875 132.363281 10.535156 131.820312 10.910156 L 118.042969 20.398438 C 117.835938 20.542969 117.597656 20.609375 117.367188 20.609375 Z M 117.367188 20.609375 " fill-opacity="1" fill-rule="nonzero"/><path fill="#ff66c4" d="M 132.871094 20.609375 C 132.492188 20.609375 132.121094 20.429688 131.890625 20.097656 C 131.515625 19.558594 131.652344 18.820312 132.195312 18.445312 L 145.972656 8.957031 C 146.511719 8.578125 147.253906 8.71875 147.628906 9.257812 C 148.003906 9.796875 147.867188 10.535156 147.324219 10.910156 L 133.546875 20.398438 C 133.339844 20.542969 133.105469 20.609375 132.871094 20.609375 Z M 132.871094 20.609375 " fill-opacity="1" fill-rule="nonzero"/><g clip-path="url(#d7aff44928)"><path fill="#ff66c4" d="M 148.378906 20.609375 C 147.996094 20.609375 147.628906 20.429688 147.394531 20.097656 C 147.019531 19.558594 147.15625 18.820312 147.699219 18.445312 L 161.476562 8.957031 C 162.015625 8.578125 162.757812 8.71875 163.132812 9.257812 C 163.507812 9.796875 163.371094 10.535156 162.828125 10.910156 L 149.050781 20.398438 C 148.847656 20.542969 148.609375 20.609375 148.378906 20.609375 Z M 148.378906 20.609375 " fill-opacity="1" fill-rule="nonzero"/></g><g clip-path="url(#ff2cce5b04)"><path fill="#ff66c4" d="M 137.667969 59.929688 L 84.808594 59.929688 C 84.152344 59.929688 83.617188 59.398438 83.617188 58.742188 C 83.617188 58.085938 84.152344 57.554688 84.808594 57.554688 L 137.667969 57.554688 C 138.328125 57.554688 138.859375 58.085938 138.859375 58.742188 C 138.859375 59.398438 138.328125 59.929688 137.667969 59.929688 Z M 137.667969 59.929688 " fill-opacity="1" fill-rule="nonzero"/></g><g clip-path="url(#10fbb6fb75)"><g clip-path="url(#60d0e7c287)"><path fill="url(#8a94317a52)" d="M 0.00390625 6.199219 L 0.00390625 60.1875 L 71.671875 60.1875 L 71.671875 6.199219 Z M 0.00390625 6.199219 " fill-rule="nonzero"/></g></g></svg>