<svg xmlns="http://www.w3.org/2000/svg" xmlns:xlink="http://www.w3.org/1999/xlink" width="177" zoomAndPan="magnify" viewBox="0 0 132.75 56.249996" height="75" preserveAspectRatio="xMidYMid meet" version="1.0"><defs><clipPath id="25032a85bc"><path d="M 82 4 L 131.753906 4 L 131.753906 31 L 82 31 Z M 82 4 " clip-rule="nonzero"/></clipPath><clipPath id="25063a56eb"><path d="M 77.785156 12 L 85 12 L 85 24 L 77.785156 24 Z M 77.785156 12 " clip-rule="nonzero"/></clipPath><clipPath id="c61ed88613"><path d="M 78 2.296875 L 131.753906 2.296875 L 131.753906 16 L 78 16 Z M 78 2.296875 " clip-rule="nonzero"/></clipPath><clipPath id="40a70bf098"><path d="M 124 42 L 131.753906 42 L 131.753906 55.511719 L 124 55.511719 Z M 124 42 " clip-rule="nonzero"/></clipPath><clipPath id="ae9b541844"><path d="M 1.488281 0.339844 L 56.363281 0.339844 L 56.363281 55.214844 L 1.488281 55.214844 Z M 1.488281 0.339844 " clip-rule="nonzero"/></clipPath><clipPath id="93353a4367"><path d="M 15.652344 45.480469 C 15.652344 45.964844 15.253906 46.363281 14.765625 46.363281 C 14.277344 46.363281 13.878906 45.964844 13.878906 45.480469 C 13.878906 44.992188 14.277344 44.59375 14.765625 44.59375 C 15.253906 44.59375 15.652344 44.992188 15.652344 45.480469 Z M 14.765625 37.511719 C 14.898438 37.511719 15.023438 37.527344 15.148438 37.535156 L 14.289062 42.871094 C 13.054688 43.097656 12.109375 44.179688 12.109375 45.480469 C 12.109375 46.945312 13.300781 48.132812 14.765625 48.132812 C 16.230469 48.132812 17.421875 46.945312 17.421875 45.480469 C 17.421875 44.476562 16.855469 43.617188 16.035156 43.164062 L 16.898438 37.8125 C 20.253906 38.746094 22.730469 41.824219 22.730469 45.480469 C 22.730469 49.871094 19.160156 53.445312 14.765625 53.445312 C 12.328125 53.445312 10.089844 52.359375 8.570312 50.46875 L 8.570312 40.488281 C 10.089844 38.597656 12.328125 37.511719 14.765625 37.511719 Z M 3.261719 53.445312 L 3.261719 7.421875 L 6.800781 7.421875 L 6.800781 53.445312 Z M 3.261719 4.765625 C 3.261719 3.300781 4.449219 2.113281 5.914062 2.113281 L 51.9375 2.113281 C 53.402344 2.113281 54.59375 3.300781 54.59375 4.765625 L 54.59375 5.652344 L 3.261719 5.652344 Z M 12.628906 7.421875 L 8.570312 11.480469 L 8.570312 7.421875 Z M 8.570312 16.789062 L 8.570312 13.984375 L 15.132812 7.421875 L 17.9375 7.421875 Z M 30.457031 41.078125 C 29.792969 41.117188 29.179688 41.296875 28.625 41.59375 L 18.714844 28.664062 L 33.09375 28.664062 Z M 40.804688 37.691406 C 38.660156 39.304688 37.191406 41.773438 36.9375 44.59375 L 35.03125 44.59375 C 34.722656 43.078125 33.636719 41.859375 32.210938 41.335938 L 34.65625 29.820312 Z M 46.628906 37.511719 C 51.023438 37.511719 54.59375 41.089844 54.59375 45.480469 C 54.59375 49.871094 51.023438 53.445312 46.628906 53.445312 C 42.535156 53.445312 39.15625 50.339844 38.714844 46.363281 L 44.132812 46.363281 C 44.5 47.390625 45.476562 48.132812 46.628906 48.132812 C 48.09375 48.132812 49.28125 46.945312 49.28125 45.480469 C 49.28125 44.175781 48.335938 43.09375 47.097656 42.871094 L 43.4375 38.1875 C 44.414062 37.753906 45.492188 37.511719 46.628906 37.511719 Z M 47.511719 45.480469 C 47.511719 45.964844 47.113281 46.363281 46.628906 46.363281 C 46.140625 46.363281 45.742188 45.964844 45.742188 45.480469 C 45.742188 44.992188 46.140625 44.59375 46.628906 44.59375 C 47.113281 44.59375 47.511719 44.992188 47.511719 45.480469 Z M 41.894531 39.085938 L 45.160156 43.269531 C 44.6875 43.585938 44.328125 44.050781 44.132812 44.59375 L 38.714844 44.59375 C 38.964844 42.339844 40.164062 40.371094 41.894531 39.085938 Z M 30.773438 48.128906 L 31.492188 44.730469 L 29.757812 44.367188 L 29.078125 47.570312 C 28.453125 47.082031 28.042969 46.332031 28.042969 45.480469 C 28.042969 44.011719 29.230469 42.824219 30.695312 42.824219 C 32.164062 42.824219 33.351562 44.011719 33.351562 45.480469 C 33.351562 46.917969 32.199219 48.085938 30.773438 48.128906 Z M 20.441406 7.421875 L 56.363281 7.421875 L 56.363281 4.765625 C 56.363281 2.324219 54.378906 0.339844 51.9375 0.339844 L 5.914062 0.339844 C 3.472656 0.339844 1.488281 2.324219 1.488281 4.765625 L 1.488281 55.214844 L 8.570312 55.214844 L 8.570312 52.992188 C 10.296875 54.421875 12.460938 55.214844 14.765625 55.214844 C 20.132812 55.214844 24.5 50.847656 24.5 45.480469 C 24.5 40.945312 21.382812 37.136719 17.183594 36.058594 L 18.046875 30.703125 L 27.261719 42.722656 C 26.652344 43.480469 26.269531 44.429688 26.269531 45.480469 C 26.269531 47.195312 27.261719 48.667969 28.691406 49.398438 L 28.210938 51.675781 L 26.269531 51.675781 L 26.269531 49.902344 L 24.5 49.902344 L 24.5 51.675781 C 24.5 52.648438 25.296875 53.445312 26.269531 53.445312 L 31.582031 53.445312 L 31.582031 55.214844 L 33.351562 55.214844 L 33.351562 53.445312 C 33.351562 52.46875 32.554688 51.675781 31.582031 51.675781 L 30.019531 51.675781 L 30.398438 49.871094 C 30.5 49.878906 30.597656 49.902344 30.695312 49.902344 C 32.832031 49.902344 34.621094 48.382812 35.03125 46.363281 L 36.9375 46.363281 C 37.386719 51.316406 41.558594 55.214844 46.628906 55.214844 C 51.996094 55.214844 56.363281 50.847656 56.363281 45.480469 C 56.363281 40.109375 51.996094 35.742188 46.628906 35.742188 C 45.082031 35.742188 43.625 36.117188 42.324219 36.761719 L 35.136719 27.558594 L 35.835938 24.238281 L 37.777344 24.238281 L 37.777344 22.46875 L 32.464844 22.46875 L 32.464844 24.238281 L 34.027344 24.238281 L 33.464844 26.894531 L 18.660156 26.894531 L 19.945312 18.925781 L 22.730469 18.925781 L 22.730469 17.15625 L 15.652344 17.15625 L 15.652344 18.925781 L 18.152344 18.925781 L 15.433594 35.777344 C 15.210938 35.761719 14.992188 35.742188 14.765625 35.742188 C 12.460938 35.742188 10.296875 36.535156 8.570312 37.964844 L 8.570312 19.292969 Z M 20.441406 7.421875 " clip-rule="nonzero"/></clipPath><clipPath id="7b5e547017"><path d="M 15.652344 45.480469 C 15.652344 45.964844 15.253906 46.363281 14.765625 46.363281 C 14.277344 46.363281 13.878906 45.964844 13.878906 45.480469 C 13.878906 44.992188 14.277344 44.59375 14.765625 44.59375 C 15.253906 44.59375 15.652344 44.992188 15.652344 45.480469 Z M 14.765625 37.511719 C 14.898438 37.511719 15.023438 37.527344 15.148438 37.535156 L 14.289062 42.871094 C 13.054688 43.097656 12.109375 44.179688 12.109375 45.480469 C 12.109375 46.945312 13.300781 48.132812 14.765625 48.132812 C 16.230469 48.132812 17.421875 46.945312 17.421875 45.480469 C 17.421875 44.476562 16.855469 43.617188 16.035156 43.164062 L 16.898438 37.8125 C 20.253906 38.746094 22.730469 41.824219 22.730469 45.480469 C 22.730469 49.871094 19.160156 53.445312 14.765625 53.445312 C 12.328125 53.445312 10.089844 52.359375 8.570312 50.46875 L 8.570312 40.488281 C 10.089844 38.597656 12.328125 37.511719 14.765625 37.511719 Z M 3.261719 53.445312 L 3.261719 7.421875 L 6.800781 7.421875 L 6.800781 53.445312 Z M 3.261719 4.765625 C 3.261719 3.300781 4.449219 2.113281 5.914062 2.113281 L 51.9375 2.113281 C 53.402344 2.113281 54.59375 3.300781 54.59375 4.765625 L 54.59375 5.652344 L 3.261719 5.652344 Z M 12.628906 7.421875 L 8.570312 11.480469 L 8.570312 7.421875 Z M 8.570312 16.789062 L 8.570312 13.984375 L 15.132812 7.421875 L 17.9375 7.421875 Z M 30.457031 41.078125 C 29.792969 41.117188 29.179688 41.296875 28.625 41.59375 L 18.714844 28.664062 L 33.09375 28.664062 Z M 40.804688 37.691406 C 38.660156 39.304688 37.191406 41.773438 36.9375 44.59375 L 35.03125 44.59375 C 34.722656 43.078125 33.636719 41.859375 32.210938 41.335938 L 34.65625 29.820312 Z M 46.628906 37.511719 C 51.023438 37.511719 54.59375 41.089844 54.59375 45.480469 C 54.59375 49.871094 51.023438 53.445312 46.628906 53.445312 C 42.535156 53.445312 39.15625 50.339844 38.714844 46.363281 L 44.132812 46.363281 C 44.5 47.390625 45.476562 48.132812 46.628906 48.132812 C 48.09375 48.132812 49.28125 46.945312 49.28125 45.480469 C 49.28125 44.175781 48.335938 43.09375 47.097656 42.871094 L 43.4375 38.1875 C 44.414062 37.753906 45.492188 37.511719 46.628906 37.511719 Z M 47.511719 45.480469 C 47.511719 45.964844 47.113281 46.363281 46.628906 46.363281 C 46.140625 46.363281 45.742188 45.964844 45.742188 45.480469 C 45.742188 44.992188 46.140625 44.59375 46.628906 44.59375 C 47.113281 44.59375 47.511719 44.992188 47.511719 45.480469 Z M 41.894531 39.085938 L 45.160156 43.269531 C 44.6875 43.585938 44.328125 44.050781 44.132812 44.59375 L 38.714844 44.59375 C 38.964844 42.339844 40.164062 40.371094 41.894531 39.085938 Z M 30.773438 48.128906 L 31.492188 44.730469 L 29.757812 44.367188 L 29.078125 47.570312 C 28.453125 47.082031 28.042969 46.332031 28.042969 45.480469 C 28.042969 44.011719 29.230469 42.824219 30.695312 42.824219 C 32.164062 42.824219 33.351562 44.011719 33.351562 45.480469 C 33.351562 46.917969 32.199219 48.085938 30.773438 48.128906 Z M 20.441406 7.421875 L 56.363281 7.421875 L 56.363281 4.765625 C 56.363281 2.324219 54.378906 0.339844 51.9375 0.339844 L 5.914062 0.339844 C 3.472656 0.339844 1.488281 2.324219 1.488281 4.765625 L 1.488281 55.214844 L 8.570312 55.214844 L 8.570312 52.992188 C 10.296875 54.421875 12.460938 55.214844 14.765625 55.214844 C 20.132812 55.214844 24.5 50.847656 24.5 45.480469 C 24.5 40.945312 21.382812 37.136719 17.183594 36.058594 L 18.046875 30.703125 L 27.261719 42.722656 C 26.652344 43.480469 26.269531 44.429688 26.269531 45.480469 C 26.269531 47.195312 27.261719 48.667969 28.691406 49.398438 L 28.210938 51.675781 L 26.269531 51.675781 L 26.269531 49.902344 L 24.5 49.902344 L 24.5 51.675781 C 24.5 52.648438 25.296875 53.445312 26.269531 53.445312 L 31.582031 53.445312 L 31.582031 55.214844 L 33.351562 55.214844 L 33.351562 53.445312 C 33.351562 52.46875 32.554688 51.675781 31.582031 51.675781 L 30.019531 51.675781 L 30.398438 49.871094 C 30.5 49.878906 30.597656 49.902344 30.695312 49.902344 C 32.832031 49.902344 34.621094 48.382812 35.03125 46.363281 L 36.9375 46.363281 C 37.386719 51.316406 41.558594 55.214844 46.628906 55.214844 C 51.996094 55.214844 56.363281 50.847656 56.363281 45.480469 C 56.363281 40.109375 51.996094 35.742188 46.628906 35.742188 C 45.082031 35.742188 43.625 36.117188 42.324219 36.761719 L 35.136719 27.558594 L 35.835938 24.238281 L 37.777344 24.238281 L 37.777344 22.46875 L 32.464844 22.46875 L 32.464844 24.238281 L 34.027344 24.238281 L 33.464844 26.894531 L 18.660156 26.894531 L 19.945312 18.925781 L 22.730469 18.925781 L 22.730469 17.15625 L 15.652344 17.15625 L 15.652344 18.925781 L 18.152344 18.925781 L 15.433594 35.777344 C 15.210938 35.761719 14.992188 35.742188 14.765625 35.742188 C 12.460938 35.742188 10.296875 36.535156 8.570312 37.964844 L 8.570312 19.292969 L 20.441406 7.421875 " clip-rule="nonzero"/></clipPath><linearGradient x1="0.0000000267905" gradientTransform="matrix(0, -54.872873, 54.872873, 0, 28.92645, 55.214398)" y1="0" x2="1" gradientUnits="userSpaceOnUse" y2="0" id="9f08c35877"><stop stop-opacity="1" stop-color="rgb(62.399292%, 18.399048%, 100%)" offset="0"/><stop stop-opacity="1" stop-color="rgb(62.199402%, 18.598938%, 100%)" offset="0.00390625"/><stop stop-opacity="1" stop-color="rgb(61.999512%, 18.798828%, 100%)" offset="0.0078125"/><stop stop-opacity="1" stop-color="rgb(61.799622%, 18.998718%, 99.798584%)" offset="0.0117187"/><stop stop-opacity="1" stop-color="rgb(61.599731%, 19.198608%, 99.598694%)" offset="0.015625"/><stop stop-opacity="1" stop-color="rgb(61.376953%, 19.419861%, 99.598694%)" offset="0.0195312"/><stop stop-opacity="1" stop-color="rgb(61.155701%, 19.642639%, 99.598694%)" offset="0.0234375"/><stop stop-opacity="1" stop-color="rgb(60.777283%, 19.833374%, 99.586487%)" offset="0.0273438"/><stop stop-opacity="1" stop-color="rgb(60.398865%, 20.024109%, 99.57428%)" offset="0.03125"/><stop stop-opacity="1" stop-color="rgb(60.198975%, 20.214844%, 99.386597%)" offset="0.0351562"/><stop stop-opacity="1" stop-color="rgb(59.999084%, 20.405579%, 99.198914%)" offset="0.0390625"/><stop stop-opacity="1" stop-color="rgb(59.805298%, 20.602417%, 99.198914%)" offset="0.0429687"/><stop stop-opacity="1" stop-color="rgb(59.611511%, 20.799255%, 99.198914%)" offset="0.046875"/><stop stop-opacity="1" stop-color="rgb(59.405518%, 20.999146%, 99.198914%)" offset="0.0507812"/><stop stop-opacity="1" stop-color="rgb(59.199524%, 21.199036%, 99.198914%)" offset="0.0546875"/><stop stop-opacity="1" stop-color="rgb(58.999634%, 21.398926%, 98.999023%)" offset="0.0585938"/><stop stop-opacity="1" stop-color="rgb(58.799744%, 21.598816%, 98.799133%)" offset="0.0625"/><stop stop-opacity="1" stop-color="rgb(58.583069%, 21.813965%, 98.799133%)" offset="0.0664063"/><stop stop-opacity="1" stop-color="rgb(58.36792%, 22.03064%, 98.799133%)" offset="0.0703125"/><stop stop-opacity="1" stop-color="rgb(57.983398%, 22.219849%, 98.79303%)" offset="0.0742188"/><stop stop-opacity="1" stop-color="rgb(57.598877%, 22.409058%, 98.786926%)" offset="0.078125"/><stop stop-opacity="1" stop-color="rgb(57.450867%, 22.554016%, 98.59314%)" offset="0.0859375"/><stop stop-opacity="1" stop-color="rgb(57.113647%, 22.898865%, 98.399353%)" offset="0.0898438"/><stop stop-opacity="1" stop-color="rgb(56.924438%, 23.098755%, 98.399353%)" offset="0.09375"/><stop stop-opacity="1" stop-color="rgb(56.733704%, 23.298645%, 98.399353%)" offset="0.0976562"/><stop stop-opacity="1" stop-color="rgb(56.542969%, 23.498535%, 98.399353%)" offset="0.101562"/><stop stop-opacity="1" stop-color="rgb(56.30188%, 23.716736%, 98.199463%)" offset="0.105469"/><stop stop-opacity="1" stop-color="rgb(56.062317%, 23.936462%, 97.999573%)" offset="0.109375"/><stop stop-opacity="1" stop-color="rgb(55.871582%, 24.127197%, 97.999573%)" offset="0.117188"/><stop stop-opacity="1" stop-color="rgb(55.290222%, 24.508667%, 97.799683%)" offset="0.121094"/><stop stop-opacity="1" stop-color="rgb(54.899597%, 24.699402%, 97.599792%)" offset="0.125"/><stop stop-opacity="1" stop-color="rgb(54.708862%, 24.899292%, 97.599792%)" offset="0.128906"/><stop stop-opacity="1" stop-color="rgb(54.518127%, 25.099182%, 97.599792%)" offset="0.132813"/><stop stop-opacity="1" stop-color="rgb(54.327393%, 25.299072%, 97.599792%)" offset="0.136719"/><stop stop-opacity="1" stop-color="rgb(54.136658%, 25.498962%, 97.599792%)" offset="0.140625"/><stop stop-opacity="1" stop-color="rgb(53.895569%, 25.720215%, 97.44873%)" offset="0.144531"/><stop stop-opacity="1" stop-color="rgb(53.656006%, 25.942993%, 97.299194%)" offset="0.148438"/><stop stop-opacity="1" stop-color="rgb(53.465271%, 26.133728%, 97.299194%)" offset="0.15625"/><stop stop-opacity="1" stop-color="rgb(53.083801%, 26.515198%, 97.299194%)" offset="0.164062"/><stop stop-opacity="1" stop-color="rgb(52.696228%, 26.902771%, 97.105408%)" offset="0.167969"/><stop stop-opacity="1" stop-color="rgb(52.49939%, 27.099609%, 96.911621%)" offset="0.171875"/><stop stop-opacity="1" stop-color="rgb(52.165222%, 27.2995%, 96.905518%)" offset="0.175781"/><stop stop-opacity="1" stop-color="rgb(51.831055%, 27.49939%, 96.899414%)" offset="0.179688"/><stop stop-opacity="1" stop-color="rgb(51.64032%, 27.648926%, 96.899414%)" offset="0.1875"/><stop stop-opacity="1" stop-color="rgb(51.223755%, 28.015137%, 96.699524%)" offset="0.191406"/><stop stop-opacity="1" stop-color="rgb(50.999451%, 28.230286%, 96.499634%)" offset="0.195312"/><stop stop-opacity="1" stop-color="rgb(50.793457%, 28.421021%, 96.499634%)" offset="0.199219"/><stop stop-opacity="1" stop-color="rgb(50.587463%, 28.611755%, 96.499634%)" offset="0.203125"/><stop stop-opacity="1" stop-color="rgb(50.393677%, 28.805542%, 96.499634%)" offset="0.210938"/><stop stop-opacity="1" stop-color="rgb(49.998474%, 29.199219%, 96.311951%)" offset="0.214844"/><stop stop-opacity="1" stop-color="rgb(49.798584%, 29.399109%, 96.124268%)" offset="0.21875"/><stop stop-opacity="1" stop-color="rgb(49.420166%, 29.598999%, 96.112061%)" offset="0.222656"/><stop stop-opacity="1" stop-color="rgb(49.043274%, 29.798889%, 96.099854%)" offset="0.226562"/><stop stop-opacity="1" stop-color="rgb(48.820496%, 30.01709%, 96.099854%)" offset="0.230469"/><stop stop-opacity="1" stop-color="rgb(48.599243%, 30.236816%, 96.099854%)" offset="0.234375"/><stop stop-opacity="1" stop-color="rgb(48.399353%, 30.427551%, 95.898438%)" offset="0.238281"/><stop stop-opacity="1" stop-color="rgb(48.199463%, 30.618286%, 95.698547%)" offset="0.242188"/><stop stop-opacity="1" stop-color="rgb(47.999573%, 30.809021%, 95.698547%)" offset="0.246094"/><stop stop-opacity="1" stop-color="rgb(47.799683%, 30.999756%, 95.698547%)" offset="0.25"/><stop stop-opacity="1" stop-color="rgb(47.648621%, 31.390381%, 95.698547%)" offset="0.253906"/><stop stop-opacity="1" stop-color="rgb(47.499084%, 31.781006%, 95.698547%)" offset="0.257812"/><stop stop-opacity="1" stop-color="rgb(47.299194%, 31.971741%, 95.498657%)" offset="0.261719"/><stop stop-opacity="1" stop-color="rgb(47.099304%, 32.162476%, 95.298767%)" offset="0.265625"/><stop stop-opacity="1" stop-color="rgb(46.876526%, 32.330322%, 95.298767%)" offset="0.269531"/><stop stop-opacity="1" stop-color="rgb(46.655273%, 32.499695%, 95.298767%)" offset="0.273438"/><stop stop-opacity="1" stop-color="rgb(46.276855%, 32.699585%, 95.28656%)" offset="0.277344"/><stop stop-opacity="1" stop-color="rgb(45.899963%, 32.899475%, 95.274353%)" offset="0.28125"/><stop stop-opacity="1" stop-color="rgb(45.698547%, 33.099365%, 95.08667%)" offset="0.285156"/><stop stop-opacity="1" stop-color="rgb(45.498657%, 33.299255%, 94.898987%)" offset="0.289062"/><stop stop-opacity="1" stop-color="rgb(45.304871%, 33.493042%, 94.898987%)" offset="0.296875"/><stop stop-opacity="1" stop-color="rgb(44.90509%, 33.877563%, 94.898987%)" offset="0.300781"/><stop stop-opacity="1" stop-color="rgb(44.699097%, 34.068298%, 94.898987%)" offset="0.304687"/><stop stop-opacity="1" stop-color="rgb(44.499207%, 34.259033%, 94.699097%)" offset="0.308594"/><stop stop-opacity="1" stop-color="rgb(44.299316%, 34.449768%, 94.499207%)" offset="0.3125"/><stop stop-opacity="1" stop-color="rgb(44.082642%, 34.674072%, 94.499207%)" offset="0.316406"/><stop stop-opacity="1" stop-color="rgb(43.867493%, 34.899902%, 94.499207%)" offset="0.320312"/><stop stop-opacity="1" stop-color="rgb(43.482971%, 35.099792%, 94.493103%)" offset="0.324219"/><stop stop-opacity="1" stop-color="rgb(43.099976%, 35.299683%, 94.487%)" offset="0.328125"/><stop stop-opacity="1" stop-color="rgb(42.901611%, 35.496521%, 94.293213%)" offset="0.332031"/><stop stop-opacity="1" stop-color="rgb(42.704773%, 35.693359%, 94.099426%)" offset="0.335938"/><stop stop-opacity="1" stop-color="rgb(42.56134%, 35.884094%, 94.099426%)" offset="0.34375"/><stop stop-opacity="1" stop-color="rgb(42.230225%, 36.264038%, 94.099426%)" offset="0.351562"/><stop stop-opacity="1" stop-color="rgb(41.801453%, 36.676025%, 93.899536%)" offset="0.355469"/><stop stop-opacity="1" stop-color="rgb(41.56189%, 36.898804%, 93.699646%)" offset="0.359375"/><stop stop-opacity="1" stop-color="rgb(41.371155%, 37.098694%, 93.699646%)" offset="0.363281"/><stop stop-opacity="1" stop-color="rgb(41.18042%, 37.298584%, 93.699646%)" offset="0.367188"/><stop stop-opacity="1" stop-color="rgb(40.789795%, 37.44812%, 93.499756%)" offset="0.371094"/><stop stop-opacity="1" stop-color="rgb(40.39917%, 37.599182%, 93.299866%)" offset="0.375"/><stop stop-opacity="1" stop-color="rgb(40.208435%, 37.789917%, 93.299866%)" offset="0.382812"/><stop stop-opacity="1" stop-color="rgb(39.826965%, 38.171387%, 93.299866%)" offset="0.390625"/><stop stop-opacity="1" stop-color="rgb(39.395142%, 38.580322%, 93.09845%)" offset="0.394531"/><stop stop-opacity="1" stop-color="rgb(39.155579%, 38.798523%, 92.89856%)" offset="0.398438"/><stop stop-opacity="1" stop-color="rgb(38.964844%, 38.998413%, 92.89856%)" offset="0.402344"/><stop stop-opacity="1" stop-color="rgb(38.774109%, 39.199829%, 92.89856%)" offset="0.40625"/><stop stop-opacity="1" stop-color="rgb(38.583374%, 39.399719%, 92.89856%)" offset="0.410156"/><stop stop-opacity="1" stop-color="rgb(38.392639%, 39.599609%, 92.89856%)" offset="0.414062"/><stop stop-opacity="1" stop-color="rgb(38.195801%, 39.793396%, 92.704773%)" offset="0.417969"/><stop stop-opacity="1" stop-color="rgb(37.998962%, 39.987183%, 92.510986%)" offset="0.421875"/><stop stop-opacity="1" stop-color="rgb(37.660217%, 40.177917%, 92.504883%)" offset="0.425781"/><stop stop-opacity="1" stop-color="rgb(37.322998%, 40.368652%, 92.498779%)" offset="0.429688"/><stop stop-opacity="1" stop-color="rgb(37.135315%, 40.557861%, 92.498779%)" offset="0.4375"/><stop stop-opacity="1" stop-color="rgb(36.723328%, 40.9729%, 92.349243%)" offset="0.441406"/><stop stop-opacity="1" stop-color="rgb(36.499023%, 41.19873%, 92.199707%)" offset="0.445312"/><stop stop-opacity="1" stop-color="rgb(36.29303%, 41.398621%, 92.199707%)" offset="0.449219"/><stop stop-opacity="1" stop-color="rgb(36.087036%, 41.598511%, 92.199707%)" offset="0.453125"/><stop stop-opacity="1" stop-color="rgb(35.89325%, 41.795349%, 92.199707%)" offset="0.457031"/><stop stop-opacity="1" stop-color="rgb(35.699463%, 41.993713%, 92.199707%)" offset="0.460938"/><stop stop-opacity="1" stop-color="rgb(35.499573%, 42.182922%, 92.012024%)" offset="0.464844"/><stop stop-opacity="1" stop-color="rgb(35.299683%, 42.373657%, 91.824341%)" offset="0.46875"/><stop stop-opacity="1" stop-color="rgb(34.921265%, 42.520142%, 91.812134%)" offset="0.472656"/><stop stop-opacity="1" stop-color="rgb(34.542847%, 42.666626%, 91.799927%)" offset="0.476562"/><stop stop-opacity="1" stop-color="rgb(34.320068%, 42.883301%, 91.799927%)" offset="0.480469"/><stop stop-opacity="1" stop-color="rgb(34.098816%, 43.099976%, 91.799927%)" offset="0.484375"/><stop stop-opacity="1" stop-color="rgb(33.898926%, 43.299866%, 91.598511%)" offset="0.488281"/><stop stop-opacity="1" stop-color="rgb(33.699036%, 43.499756%, 91.398621%)" offset="0.492188"/><stop stop-opacity="1" stop-color="rgb(33.499146%, 43.699646%, 91.398621%)" offset="0.496094"/><stop stop-opacity="1" stop-color="rgb(33.299255%, 43.899536%, 91.398621%)" offset="0.5"/><stop stop-opacity="1" stop-color="rgb(33.099365%, 44.099426%, 91.398621%)" offset="0.503906"/><stop stop-opacity="1" stop-color="rgb(32.899475%, 44.299316%, 91.398621%)" offset="0.507812"/><stop stop-opacity="1" stop-color="rgb(32.699585%, 44.499207%, 91.19873%)" offset="0.511719"/><stop stop-opacity="1" stop-color="rgb(32.499695%, 44.699097%, 90.99884%)" offset="0.515625"/><stop stop-opacity="1" stop-color="rgb(32.327271%, 44.920349%, 90.99884%)" offset="0.519531"/><stop stop-opacity="1" stop-color="rgb(32.154846%, 45.143127%, 90.99884%)" offset="0.523438"/><stop stop-opacity="1" stop-color="rgb(31.776428%, 45.333862%, 90.986633%)" offset="0.527344"/><stop stop-opacity="1" stop-color="rgb(31.399536%, 45.524597%, 90.974426%)" offset="0.53125"/><stop stop-opacity="1" stop-color="rgb(31.199646%, 45.715332%, 90.786743%)" offset="0.535156"/><stop stop-opacity="1" stop-color="rgb(30.999756%, 45.906067%, 90.59906%)" offset="0.539062"/><stop stop-opacity="1" stop-color="rgb(30.805969%, 46.102905%, 90.59906%)" offset="0.542969"/><stop stop-opacity="1" stop-color="rgb(30.612183%, 46.299744%, 90.59906%)" offset="0.546875"/><stop stop-opacity="1" stop-color="rgb(30.404663%, 46.499634%, 90.59906%)" offset="0.550781"/><stop stop-opacity="1" stop-color="rgb(30.198669%, 46.699524%, 90.59906%)" offset="0.554688"/><stop stop-opacity="1" stop-color="rgb(29.998779%, 46.899414%, 90.39917%)" offset="0.558594"/><stop stop-opacity="1" stop-color="rgb(29.798889%, 47.099304%, 90.19928%)" offset="0.5625"/><stop stop-opacity="1" stop-color="rgb(29.58374%, 47.309875%, 90.19928%)" offset="0.566406"/><stop stop-opacity="1" stop-color="rgb(29.368591%, 47.521973%, 90.19928%)" offset="0.570312"/><stop stop-opacity="1" stop-color="rgb(28.98407%, 47.666931%, 90.193176%)" offset="0.574219"/><stop stop-opacity="1" stop-color="rgb(28.599548%, 47.81189%, 90.187073%)" offset="0.578125"/><stop stop-opacity="1" stop-color="rgb(28.40271%, 48.005676%, 89.993286%)" offset="0.582031"/><stop stop-opacity="1" stop-color="rgb(28.205872%, 48.199463%, 89.7995%)" offset="0.585938"/><stop stop-opacity="1" stop-color="rgb(28.015137%, 48.399353%, 89.7995%)" offset="0.589844"/><stop stop-opacity="1" stop-color="rgb(27.824402%, 48.599243%, 89.7995%)" offset="0.59375"/><stop stop-opacity="1" stop-color="rgb(27.677917%, 48.799133%, 89.7995%)" offset="0.597656"/><stop stop-opacity="1" stop-color="rgb(27.531433%, 48.999023%, 89.7995%)" offset="0.601562"/><stop stop-opacity="1" stop-color="rgb(27.296448%, 49.217224%, 89.599609%)" offset="0.605469"/><stop stop-opacity="1" stop-color="rgb(27.061462%, 49.436951%, 89.399719%)" offset="0.609375"/><stop stop-opacity="1" stop-color="rgb(26.870728%, 49.627686%, 89.399719%)" offset="0.617188"/><stop stop-opacity="1" stop-color="rgb(26.289368%, 50.009155%, 89.199829%)" offset="0.621094"/><stop stop-opacity="1" stop-color="rgb(25.898743%, 50.19989%, 88.999939%)" offset="0.625"/><stop stop-opacity="1" stop-color="rgb(25.708008%, 50.39978%, 88.999939%)" offset="0.628906"/><stop stop-opacity="1" stop-color="rgb(25.517273%, 50.59967%, 88.999939%)" offset="0.632812"/><stop stop-opacity="1" stop-color="rgb(25.326538%, 50.799561%, 88.999939%)" offset="0.636719"/><stop stop-opacity="1" stop-color="rgb(25.137329%, 50.999451%, 88.999939%)" offset="0.640625"/><stop stop-opacity="1" stop-color="rgb(24.89624%, 51.220703%, 88.798523%)" offset="0.644531"/><stop stop-opacity="1" stop-color="rgb(24.655151%, 51.443481%, 88.598633%)" offset="0.648437"/><stop stop-opacity="1" stop-color="rgb(24.464417%, 51.634216%, 88.598633%)" offset="0.65625"/><stop stop-opacity="1" stop-color="rgb(24.082947%, 52.01416%, 88.598633%)" offset="0.664062"/><stop stop-opacity="1" stop-color="rgb(23.695374%, 52.351379%, 88.404846%)" offset="0.667969"/><stop stop-opacity="1" stop-color="rgb(23.498535%, 52.49939%, 88.21106%)" offset="0.671875"/><stop stop-opacity="1" stop-color="rgb(23.114014%, 52.69928%, 88.204956%)" offset="0.675781"/><stop stop-opacity="1" stop-color="rgb(22.731018%, 52.89917%, 88.198853%)" offset="0.679687"/><stop stop-opacity="1" stop-color="rgb(22.583008%, 53.09906%, 88.198853%)" offset="0.683594"/><stop stop-opacity="1" stop-color="rgb(22.436523%, 53.29895%, 88.198853%)" offset="0.6875"/><stop stop-opacity="1" stop-color="rgb(22.216797%, 53.514099%, 87.998962%)" offset="0.691406"/><stop stop-opacity="1" stop-color="rgb(21.998596%, 53.730774%, 87.799072%)" offset="0.695312"/><stop stop-opacity="1" stop-color="rgb(21.792603%, 53.921509%, 87.799072%)" offset="0.699219"/><stop stop-opacity="1" stop-color="rgb(21.586609%, 54.112244%, 87.799072%)" offset="0.703125"/><stop stop-opacity="1" stop-color="rgb(21.392822%, 54.30603%, 87.799072%)" offset="0.710938"/><stop stop-opacity="1" stop-color="rgb(20.999146%, 54.699707%, 87.658691%)" offset="0.714844"/><stop stop-opacity="1" stop-color="rgb(20.799255%, 54.899597%, 87.518311%)" offset="0.71875"/><stop stop-opacity="1" stop-color="rgb(20.420837%, 55.099487%, 87.509155%)" offset="0.722656"/><stop stop-opacity="1" stop-color="rgb(20.042419%, 55.299377%, 87.5%)" offset="0.726562"/><stop stop-opacity="1" stop-color="rgb(19.821167%, 55.517578%, 87.5%)" offset="0.730469"/><stop stop-opacity="1" stop-color="rgb(19.599915%, 55.737305%, 87.5%)" offset="0.734375"/><stop stop-opacity="1" stop-color="rgb(19.398499%, 55.926514%, 87.298584%)" offset="0.738281"/><stop stop-opacity="1" stop-color="rgb(19.198608%, 56.117249%, 87.098694%)" offset="0.742188"/><stop stop-opacity="1" stop-color="rgb(18.998718%, 56.307983%, 87.098694%)" offset="0.746094"/><stop stop-opacity="1" stop-color="rgb(18.798828%, 56.498718%, 87.098694%)" offset="0.75"/><stop stop-opacity="1" stop-color="rgb(18.598938%, 56.889343%, 87.098694%)" offset="0.753906"/><stop stop-opacity="1" stop-color="rgb(18.399048%, 57.279968%, 87.098694%)" offset="0.757812"/><stop stop-opacity="1" stop-color="rgb(18.199158%, 57.424927%, 86.898804%)" offset="0.761719"/><stop stop-opacity="1" stop-color="rgb(17.999268%, 57.571411%, 86.698914%)" offset="0.765625"/><stop stop-opacity="1" stop-color="rgb(17.782593%, 57.785034%, 86.698914%)" offset="0.769531"/><stop stop-opacity="1" stop-color="rgb(17.565918%, 57.998657%, 86.698914%)" offset="0.773438"/><stop stop-opacity="1" stop-color="rgb(17.23175%, 58.198547%, 86.686707%)" offset="0.777344"/><stop stop-opacity="1" stop-color="rgb(16.899109%, 58.399963%, 86.6745%)" offset="0.78125"/><stop stop-opacity="1" stop-color="rgb(16.699219%, 58.599854%, 86.486816%)" offset="0.785156"/><stop stop-opacity="1" stop-color="rgb(16.499329%, 58.799744%, 86.299133%)" offset="0.789062"/><stop stop-opacity="1" stop-color="rgb(16.305542%, 58.99353%, 86.299133%)" offset="0.796875"/><stop stop-opacity="1" stop-color="rgb(15.905762%, 59.376526%, 86.299133%)" offset="0.800781"/><stop stop-opacity="1" stop-color="rgb(15.699768%, 59.567261%, 86.299133%)" offset="0.804687"/><stop stop-opacity="1" stop-color="rgb(15.499878%, 59.757996%, 86.099243%)" offset="0.808594"/><stop stop-opacity="1" stop-color="rgb(15.299988%, 59.94873%, 85.899353%)" offset="0.8125"/><stop stop-opacity="1" stop-color="rgb(15.083313%, 60.173035%, 85.899353%)" offset="0.816406"/><stop stop-opacity="1" stop-color="rgb(14.868164%, 60.398865%, 85.899353%)" offset="0.820312"/><stop stop-opacity="1" stop-color="rgb(14.483643%, 60.598755%, 85.89325%)" offset="0.824219"/><stop stop-opacity="1" stop-color="rgb(14.099121%, 60.798645%, 85.887146%)" offset="0.828125"/><stop stop-opacity="1" stop-color="rgb(13.902283%, 60.995483%, 85.693359%)" offset="0.832031"/><stop stop-opacity="1" stop-color="rgb(13.705444%, 61.192322%, 85.499573%)" offset="0.835938"/><stop stop-opacity="1" stop-color="rgb(13.514709%, 61.383057%, 85.499573%)" offset="0.84375"/><stop stop-opacity="1" stop-color="rgb(13.13324%, 61.764526%, 85.499573%)" offset="0.851562"/><stop stop-opacity="1" stop-color="rgb(12.705994%, 62.176514%, 85.299683%)" offset="0.855469"/><stop stop-opacity="1" stop-color="rgb(12.471008%, 62.399292%, 85.099792%)" offset="0.859375"/><stop stop-opacity="1" stop-color="rgb(12.32605%, 62.548828%, 85.099792%)" offset="0.867188"/><stop stop-opacity="1" stop-color="rgb(11.790466%, 62.89978%, 84.898376%)" offset="0.871094"/><stop stop-opacity="1" stop-color="rgb(11.399841%, 63.09967%, 84.698486%)" offset="0.875"/><stop stop-opacity="1" stop-color="rgb(11.209106%, 63.290405%, 84.698486%)" offset="0.882812"/><stop stop-opacity="1" stop-color="rgb(10.827637%, 63.670349%, 84.698486%)" offset="0.890625"/><stop stop-opacity="1" stop-color="rgb(10.395813%, 64.079285%, 84.498596%)" offset="0.894531"/><stop stop-opacity="1" stop-color="rgb(10.154724%, 64.299011%, 84.298706%)" offset="0.898438"/><stop stop-opacity="1" stop-color="rgb(9.963989%, 64.498901%, 84.298706%)" offset="0.902344"/><stop stop-opacity="1" stop-color="rgb(9.77478%, 64.698792%, 84.298706%)" offset="0.90625"/><stop stop-opacity="1" stop-color="rgb(9.584045%, 64.898682%, 84.298706%)" offset="0.910156"/><stop stop-opacity="1" stop-color="rgb(9.393311%, 65.098572%, 84.298706%)" offset="0.914062"/><stop stop-opacity="1" stop-color="rgb(9.196472%, 65.292358%, 84.104919%)" offset="0.917969"/><stop stop-opacity="1" stop-color="rgb(8.999634%, 65.486145%, 83.911133%)" offset="0.921875"/><stop stop-opacity="1" stop-color="rgb(8.615112%, 65.67688%, 83.905029%)" offset="0.925781"/><stop stop-opacity="1" stop-color="rgb(8.230591%, 65.867615%, 83.898926%)" offset="0.929687"/><stop stop-opacity="1" stop-color="rgb(8.039856%, 66.05835%, 83.898926%)" offset="0.9375"/><stop stop-opacity="1" stop-color="rgb(7.673645%, 66.473389%, 83.699036%)" offset="0.941406"/><stop stop-opacity="1" stop-color="rgb(7.499695%, 66.699219%, 83.499146%)" offset="0.945312"/><stop stop-opacity="1" stop-color="rgb(7.292175%, 66.899109%, 83.499146%)" offset="0.949219"/><stop stop-opacity="1" stop-color="rgb(7.086182%, 67.098999%, 83.499146%)" offset="0.953125"/><stop stop-opacity="1" stop-color="rgb(6.892395%, 67.295837%, 83.499146%)" offset="0.957031"/><stop stop-opacity="1" stop-color="rgb(6.698608%, 67.492676%, 83.499146%)" offset="0.960938"/><stop stop-opacity="1" stop-color="rgb(6.498718%, 67.636108%, 83.311462%)" offset="0.964844"/><stop stop-opacity="1" stop-color="rgb(6.298828%, 67.781067%, 83.123779%)" offset="0.96875"/><stop stop-opacity="1" stop-color="rgb(5.92041%, 67.967224%, 83.111572%)" offset="0.972656"/><stop stop-opacity="1" stop-color="rgb(5.543518%, 68.154907%, 83.099365%)" offset="0.976562"/><stop stop-opacity="1" stop-color="rgb(5.32074%, 68.37616%, 83.099365%)" offset="0.980469"/><stop stop-opacity="1" stop-color="rgb(5.099487%, 68.598938%, 83.099365%)" offset="0.984375"/><stop stop-opacity="1" stop-color="rgb(4.899597%, 68.798828%, 82.899475%)" offset="0.988281"/><stop stop-opacity="1" stop-color="rgb(4.699707%, 68.998718%, 82.699585%)" offset="0.992188"/><stop stop-opacity="1" stop-color="rgb(4.499817%, 69.198608%, 82.699585%)" offset="0.996094"/><stop stop-opacity="1" stop-color="rgb(4.299927%, 69.398499%, 82.699585%)" offset="1"/></linearGradient></defs><path fill="#9fd9f6" d="M 126.160156 24.941406 C 126.160156 25.179688 125.953125 25.371094 125.703125 25.371094 L 88.71875 25.371094 C 88.464844 25.371094 88.261719 25.179688 88.261719 24.941406 L 88.261719 8.496094 C 88.261719 8.257812 88.464844 8.066406 88.71875 8.066406 L 125.703125 8.066406 C 125.953125 8.066406 126.160156 8.257812 126.160156 8.496094 Z M 126.160156 24.941406 " fill-opacity="1" fill-rule="nonzero"/><g clip-path="url(#25032a85bc)"><path fill="#21184d" d="M 130.050781 30.039062 L 84.371094 30.039062 C 83.539062 30.039062 82.863281 29.363281 82.863281 28.527344 L 82.863281 5.703125 C 82.863281 4.867188 83.539062 4.1875 84.371094 4.1875 L 130.050781 4.1875 C 130.878906 4.1875 131.554688 4.867188 131.554688 5.703125 L 131.554688 28.527344 C 131.554688 29.363281 130.878906 30.039062 130.050781 30.039062 Z M 84.6875 28.207031 L 129.730469 28.207031 L 129.730469 6.023438 L 84.6875 6.023438 Z M 84.6875 28.207031 " fill-opacity="1" fill-rule="nonzero"/></g><path fill="#ffffff" d="M 83.484375 13.199219 L 79.304688 13.199219 C 78.980469 13.199219 78.714844 13.46875 78.714844 13.796875 L 78.714844 22.03125 C 78.714844 22.359375 78.980469 22.625 79.304688 22.625 L 83.484375 22.625 Z M 83.484375 13.199219 " fill-opacity="1" fill-rule="nonzero"/><g clip-path="url(#25063a56eb)"><path fill="#21184d" d="M 83.484375 23.542969 L 79.304688 23.542969 C 78.476562 23.542969 77.800781 22.863281 77.800781 22.03125 L 77.800781 13.796875 C 77.800781 12.964844 78.476562 12.285156 79.304688 12.285156 L 83.484375 12.285156 C 83.988281 12.285156 84.394531 12.695312 84.394531 13.199219 L 84.394531 22.625 C 84.394531 23.132812 83.988281 23.542969 83.484375 23.542969 Z M 79.625 21.707031 L 82.570312 21.707031 L 82.570312 14.117188 L 79.625 14.117188 Z M 79.625 21.707031 " fill-opacity="1" fill-rule="nonzero"/></g><path fill="#ffffff" d="M 130.699219 14.339844 L 90.21875 14.339844 L 79.488281 3.21875 L 130.699219 3.21875 Z M 130.699219 14.339844 " fill-opacity="1" fill-rule="nonzero"/><g clip-path="url(#c61ed88613)"><path fill="#21184d" d="M 130.699219 15.257812 L 90.21875 15.257812 C 89.972656 15.257812 89.738281 15.15625 89.566406 14.980469 L 78.832031 3.859375 C 78.578125 3.59375 78.503906 3.203125 78.644531 2.863281 C 78.789062 2.523438 79.121094 2.300781 79.488281 2.300781 L 130.699219 2.300781 C 131.203125 2.300781 131.609375 2.714844 131.609375 3.21875 L 131.609375 14.339844 C 131.609375 14.847656 131.203125 15.257812 130.699219 15.257812 Z M 90.605469 13.421875 L 129.789062 13.421875 L 129.789062 4.136719 L 81.644531 4.136719 Z M 90.605469 13.421875 " fill-opacity="1" fill-rule="nonzero"/></g><path fill="#ffffff" d="M 109.5 46.574219 L 109.5 29.554688 L 104.484375 29.554688 L 104.484375 51.621094 L 126.316406 51.621094 L 126.316406 46.574219 Z M 109.5 46.574219 " fill-opacity="1" fill-rule="nonzero"/><path fill="#21184d" d="M 126.316406 52.539062 L 104.484375 52.539062 C 103.980469 52.539062 103.574219 52.128906 103.574219 51.621094 L 103.574219 29.554688 C 103.574219 29.046875 103.980469 28.636719 104.484375 28.636719 L 109.5 28.636719 C 110.003906 28.636719 110.410156 29.046875 110.410156 29.554688 L 110.410156 45.65625 L 126.316406 45.65625 C 126.820312 45.65625 127.226562 46.066406 127.226562 46.574219 L 127.226562 51.621094 C 127.226562 52.128906 126.820312 52.539062 126.316406 52.539062 Z M 105.398438 50.703125 L 125.402344 50.703125 L 125.402344 47.492188 L 109.5 47.492188 C 108.996094 47.492188 108.589844 47.082031 108.589844 46.574219 L 108.589844 30.472656 L 105.398438 30.472656 Z M 105.398438 50.703125 " fill-opacity="1" fill-rule="nonzero"/><path fill="#ffffff" d="M 113.257812 47.65625 C 113.257812 48.054688 113.21875 48.453125 113.140625 48.84375 C 113.0625 49.234375 112.949219 49.613281 112.796875 49.984375 C 112.644531 50.351562 112.460938 50.703125 112.238281 51.035156 C 112.019531 51.367188 111.769531 51.671875 111.488281 51.957031 C 111.207031 52.238281 110.902344 52.492188 110.570312 52.710938 C 110.242188 52.933594 109.894531 53.121094 109.527344 53.273438 C 109.160156 53.425781 108.785156 53.542969 108.394531 53.621094 C 108.003906 53.699219 107.613281 53.738281 107.214844 53.738281 C 106.820312 53.738281 106.425781 53.699219 106.035156 53.621094 C 105.648438 53.542969 105.269531 53.425781 104.902344 53.273438 C 104.535156 53.121094 104.1875 52.933594 103.859375 52.710938 C 103.527344 52.492188 103.222656 52.238281 102.941406 51.957031 C 102.664062 51.671875 102.410156 51.367188 102.191406 51.035156 C 101.972656 50.703125 101.785156 50.351562 101.632812 49.984375 C 101.480469 49.613281 101.367188 49.234375 101.289062 48.84375 C 101.210938 48.453125 101.171875 48.054688 101.171875 47.65625 C 101.171875 47.257812 101.210938 46.863281 101.289062 46.46875 C 101.367188 46.078125 101.480469 45.699219 101.632812 45.328125 C 101.785156 44.960938 101.972656 44.609375 102.191406 44.277344 C 102.410156 43.945312 102.664062 43.640625 102.941406 43.355469 C 103.222656 43.074219 103.527344 42.824219 103.859375 42.601562 C 104.1875 42.378906 104.535156 42.191406 104.902344 42.039062 C 105.269531 41.886719 105.648438 41.769531 106.035156 41.691406 C 106.425781 41.613281 106.820312 41.578125 107.214844 41.578125 C 107.613281 41.578125 108.003906 41.613281 108.394531 41.691406 C 108.785156 41.769531 109.160156 41.886719 109.527344 42.039062 C 109.894531 42.191406 110.242188 42.378906 110.570312 42.601562 C 110.902344 42.824219 111.207031 43.074219 111.488281 43.355469 C 111.769531 43.640625 112.019531 43.945312 112.238281 44.277344 C 112.460938 44.609375 112.644531 44.960938 112.796875 45.328125 C 112.949219 45.699219 113.0625 46.078125 113.140625 46.46875 C 113.21875 46.863281 113.257812 47.257812 113.257812 47.65625 Z M 113.257812 47.65625 " fill-opacity="1" fill-rule="nonzero"/><path fill="#21184d" d="M 107.214844 54.65625 C 103.382812 54.65625 100.261719 51.515625 100.261719 47.65625 C 100.261719 43.796875 103.382812 40.660156 107.214844 40.660156 C 111.050781 40.660156 114.167969 43.796875 114.167969 47.65625 C 114.167969 51.515625 111.050781 54.65625 107.214844 54.65625 Z M 107.214844 42.492188 C 104.386719 42.492188 102.085938 44.808594 102.085938 47.65625 C 102.085938 50.503906 104.386719 52.820312 107.214844 52.820312 C 110.042969 52.820312 112.347656 50.503906 112.347656 47.65625 C 112.347656 44.808594 110.042969 42.492188 107.214844 42.492188 Z M 107.214844 42.492188 " fill-opacity="1" fill-rule="nonzero"/><path fill="#ffffff" d="M 125.480469 43.550781 L 130.988281 43.550781 L 130.988281 54.78125 L 125.480469 54.78125 Z M 125.480469 43.550781 " fill-opacity="1" fill-rule="nonzero"/><g clip-path="url(#40a70bf098)"><path fill="#21184d" d="M 130.988281 55.699219 L 125.480469 55.699219 C 124.980469 55.699219 124.570312 55.289062 124.570312 54.78125 L 124.570312 43.550781 C 124.570312 43.046875 124.980469 42.632812 125.480469 42.632812 L 130.988281 42.632812 C 131.492188 42.632812 131.902344 43.046875 131.902344 43.550781 L 131.902344 54.78125 C 131.902344 55.289062 131.492188 55.699219 130.988281 55.699219 Z M 126.394531 53.867188 L 130.078125 53.867188 L 130.078125 44.46875 L 126.394531 44.46875 Z M 126.394531 53.867188 " fill-opacity="1" fill-rule="nonzero"/></g><g clip-path="url(#ae9b541844)"><g clip-path="url(#93353a4367)"><g clip-path="url(#7b5e547017)"><path fill="url(#9f08c35877)" d="M 1.488281 55.214844 L 56.363281 55.214844 L 56.363281 0.339844 L 1.488281 0.339844 Z M 1.488281 55.214844 " fill-rule="nonzero"/></g></g></g></svg>