<svg xmlns="http://www.w3.org/2000/svg" xmlns:xlink="http://www.w3.org/1999/xlink" width="173" zoomAndPan="magnify" viewBox="0 0 129.75 58.499998" height="78" preserveAspectRatio="xMidYMid meet" version="1.0"><defs><clipPath id="eaaeb62949"><path d="M 0.425781 0 L 129.078125 0 L 129.078125 58.003906 L 0.425781 58.003906 Z M 0.425781 0 " clip-rule="nonzero"/></clipPath><clipPath id="1629904903"><path d="M 77.105469 0.417969 L 129.078125 0.417969 L 129.078125 55.554688 L 77.105469 55.554688 Z M 77.105469 0.417969 " clip-rule="nonzero"/></clipPath><clipPath id="ed4ecd18f7"><path d="M 6 6 L 55.453125 6 L 55.453125 33 L 6 33 Z M 6 6 " clip-rule="nonzero"/></clipPath><clipPath id="afa29d6154"><path d="M 1.0625 15 L 7 15 L 7 25 L 1.0625 25 Z M 1.0625 15 " clip-rule="nonzero"/></clipPath><clipPath id="4b1c889927"><path d="M 1.0625 14 L 8 14 L 8 26 L 1.0625 26 Z M 1.0625 14 " clip-rule="nonzero"/></clipPath><clipPath id="b8eeb7fa60"><path d="M 1.0625 4.304688 L 55.453125 4.304688 L 55.453125 18 L 1.0625 18 Z M 1.0625 4.304688 " clip-rule="nonzero"/></clipPath><clipPath id="6b6786eaac"><path d="M 48 45 L 55 45 L 55 57.949219 L 48 57.949219 Z M 48 45 " clip-rule="nonzero"/></clipPath><clipPath id="b5be130612"><path d="M 48 44 L 55.453125 44 L 55.453125 57.949219 L 48 57.949219 Z M 48 44 " clip-rule="nonzero"/></clipPath></defs><g clip-path="url(#eaaeb62949)"><path fill="#ffffff" d="M 0.425781 0 L 129.324219 0 L 129.324219 64.820312 L 0.425781 64.820312 Z M 0.425781 0 " fill-opacity="1" fill-rule="nonzero"/><path fill="#ffffff" d="M 0.425781 0 L 129.324219 0 L 129.324219 58.117188 L 0.425781 58.117188 Z M 0.425781 0 " fill-opacity="1" fill-rule="nonzero"/></g><g clip-path="url(#1629904903)"><path fill="#ff5757" d="M 77.308594 5.046875 L 77.308594 52.398438 C 77.308594 53.234375 77.644531 54.039062 78.238281 54.628906 C 78.832031 55.222656 79.636719 55.554688 80.476562 55.554688 C 85.921875 55.554688 100.378906 55.554688 105.824219 55.554688 C 107.574219 55.554688 108.992188 54.140625 108.992188 52.398438 L 108.992188 49.226562 L 126.941406 49.226562 C 127.527344 49.226562 128 48.757812 128 48.175781 L 128 37.652344 C 128 37.375 127.886719 37.105469 127.691406 36.910156 C 127.492188 36.710938 127.222656 36.601562 126.941406 36.601562 L 108.992188 36.601562 L 108.992188 5.046875 C 108.992188 4.210938 108.65625 3.40625 108.0625 2.816406 C 107.46875 2.222656 106.664062 1.890625 105.824219 1.890625 C 100.378906 1.890625 85.921875 1.890625 80.476562 1.890625 C 79.636719 1.890625 78.832031 2.222656 78.238281 2.816406 C 77.644531 3.40625 77.308594 4.210938 77.308594 5.046875 Z M 106.878906 31.351562 L 79.421875 31.351562 L 79.421875 52.398438 C 79.421875 52.675781 79.53125 52.945312 79.730469 53.140625 C 79.929688 53.339844 80.199219 53.449219 80.476562 53.449219 L 105.824219 53.449219 C 106.40625 53.449219 106.878906 52.976562 106.878906 52.398438 L 106.878906 49.226562 L 99.226562 49.226562 C 97.5 51.171875 94.976562 52.398438 92.167969 52.398438 C 86.960938 52.398438 82.734375 48.1875 82.734375 43 C 82.734375 37.8125 86.960938 33.601562 92.167969 33.601562 C 94.894531 33.601562 97.347656 34.753906 99.074219 36.601562 L 106.878906 36.601562 C 106.878906 36.601562 106.878906 31.351562 106.878906 31.351562 Z M 95.679688 36.601562 C 94.636719 36.03125 93.441406 35.707031 92.167969 35.707031 C 88.125 35.707031 84.847656 38.972656 84.847656 43 C 84.847656 47.023438 88.125 50.292969 92.167969 50.292969 C 93.5625 50.292969 94.863281 49.902344 95.976562 49.226562 L 92.847656 49.226562 C 90.519531 49.378906 88.191406 48.21875 86.945312 46.070312 C 85.195312 43.054688 86.234375 39.1875 89.261719 37.445312 C 90.390625 36.796875 91.644531 36.519531 92.855469 36.601562 Z M 92.847656 49.226562 Z M 117.4375 38.703125 L 125.886719 38.703125 C 125.886719 38.703125 125.886719 47.121094 125.886719 47.121094 L 117.4375 47.121094 Z M 122.820312 32.421875 C 126.691406 28.269531 129.054688 22.710938 129.054688 16.605469 C 129.054688 10.515625 126.703125 4.96875 122.851562 0.820312 C 122.457031 0.394531 121.789062 0.371094 121.359375 0.765625 C 120.933594 1.160156 120.90625 1.824219 121.300781 2.25 C 124.800781 6.023438 126.941406 11.066406 126.941406 16.605469 C 126.941406 22.160156 124.789062 27.214844 121.273438 30.992188 C 120.878906 31.417969 120.902344 32.082031 121.328125 32.476562 C 121.753906 32.871094 122.425781 32.847656 122.820312 32.421875 Z M 118.679688 28.277344 C 121.480469 25.1875 123.1875 21.09375 123.1875 16.605469 C 123.1875 12.136719 121.496094 8.054688 118.710938 4.96875 C 118.320312 4.535156 117.652344 4.503906 117.21875 4.890625 C 116.785156 5.277344 116.75 5.945312 117.140625 6.375 C 119.585938 9.089844 121.078125 12.675781 121.078125 16.605469 C 121.078125 20.550781 119.578125 24.148438 117.113281 26.867188 C 116.722656 27.296875 116.757812 27.960938 117.1875 28.351562 C 117.621094 28.742188 118.289062 28.707031 118.679688 28.277344 Z M 96.316406 21.882812 C 96.316406 21.300781 95.84375 20.832031 95.261719 20.832031 L 91.039062 20.832031 C 90.457031 20.832031 89.980469 21.300781 89.980469 21.882812 L 89.980469 26.089844 C 89.980469 26.671875 90.457031 27.144531 91.039062 27.144531 L 95.261719 27.144531 C 95.84375 27.144531 96.316406 26.671875 96.316406 26.089844 Z M 87.871094 21.882812 C 87.871094 21.300781 87.398438 20.832031 86.8125 20.832031 L 82.589844 20.832031 C 82.007812 20.832031 81.535156 21.300781 81.535156 21.882812 L 81.535156 26.089844 C 81.535156 26.671875 82.007812 27.144531 82.589844 27.144531 L 86.8125 27.144531 C 87.398438 27.144531 87.871094 26.671875 87.871094 26.089844 Z M 104.765625 21.882812 C 104.765625 21.300781 104.292969 20.832031 103.710938 20.832031 L 99.484375 20.832031 C 98.902344 20.832031 98.429688 21.300781 98.429688 21.882812 L 98.429688 26.089844 C 98.429688 26.671875 98.902344 27.144531 99.484375 27.144531 L 103.710938 27.144531 C 104.292969 27.144531 104.765625 26.671875 104.765625 26.089844 Z M 94.207031 22.933594 L 94.207031 25.039062 C 94.207031 25.039062 92.09375 25.039062 92.09375 25.039062 C 92.09375 25.039062 92.09375 22.933594 92.09375 22.933594 Z M 85.757812 22.933594 L 85.757812 25.039062 C 85.757812 25.039062 83.644531 25.039062 83.644531 25.039062 C 83.644531 25.039062 83.644531 22.933594 83.644531 22.933594 Z M 102.65625 22.933594 L 102.65625 25.039062 C 102.65625 25.039062 100.542969 25.039062 100.542969 25.039062 C 100.542969 25.039062 100.542969 22.933594 100.542969 22.933594 Z M 114.546875 24.117188 C 116.277344 22.09375 117.324219 19.472656 117.324219 16.609375 C 117.324219 13.761719 116.289062 11.152344 114.574219 9.136719 C 114.199219 8.691406 113.53125 8.636719 113.085938 9.011719 C 112.640625 9.386719 112.585938 10.050781 112.960938 10.496094 C 114.367188 12.144531 115.210938 14.28125 115.210938 16.609375 C 115.210938 18.953125 114.355469 21.09375 112.9375 22.75 C 112.5625 23.191406 112.613281 23.855469 113.058594 24.230469 C 113.5 24.609375 114.167969 24.558594 114.546875 24.117188 Z M 104.765625 14.515625 C 104.765625 13.9375 104.292969 13.464844 103.710938 13.464844 L 99.484375 13.464844 C 98.902344 13.464844 98.429688 13.9375 98.429688 14.515625 L 98.429688 18.726562 C 98.429688 19.308594 98.902344 19.777344 99.484375 19.777344 L 103.710938 19.777344 C 104.292969 19.777344 104.765625 19.308594 104.765625 18.726562 Z M 87.871094 14.515625 C 87.871094 13.9375 87.398438 13.464844 86.8125 13.464844 L 82.589844 13.464844 C 82.007812 13.464844 81.535156 13.9375 81.535156 14.515625 L 81.535156 18.726562 C 81.535156 19.308594 82.007812 19.777344 82.589844 19.777344 L 86.8125 19.777344 C 87.398438 19.777344 87.871094 19.308594 87.871094 18.726562 Z M 96.316406 14.515625 C 96.316406 13.9375 95.84375 13.464844 95.261719 13.464844 L 91.039062 13.464844 C 90.457031 13.464844 89.980469 13.9375 89.980469 14.515625 L 89.980469 18.726562 C 89.980469 19.308594 90.457031 19.777344 91.039062 19.777344 L 95.261719 19.777344 C 95.84375 19.777344 96.316406 19.308594 96.316406 18.726562 Z M 94.207031 15.570312 L 94.207031 17.675781 C 94.207031 17.675781 92.09375 17.675781 92.09375 17.675781 C 92.09375 17.675781 92.09375 15.570312 92.09375 15.570312 Z M 85.757812 15.570312 L 85.757812 17.675781 C 85.757812 17.675781 83.644531 17.675781 83.644531 17.675781 C 83.644531 17.675781 83.644531 15.570312 83.644531 15.570312 Z M 102.65625 15.570312 L 102.65625 17.675781 C 102.65625 17.675781 100.542969 17.675781 100.542969 17.675781 C 100.542969 17.675781 100.542969 15.570312 100.542969 15.570312 Z M 96.316406 7.152344 C 96.316406 6.570312 95.84375 6.097656 95.261719 6.097656 L 91.039062 6.097656 C 90.457031 6.097656 89.980469 6.570312 89.980469 7.152344 L 89.980469 11.359375 C 89.980469 11.941406 90.457031 12.414062 91.039062 12.414062 L 95.261719 12.414062 C 95.84375 12.414062 96.316406 11.941406 96.316406 11.359375 Z M 104.765625 7.152344 C 104.765625 6.570312 104.292969 6.097656 103.710938 6.097656 L 99.484375 6.097656 C 98.902344 6.097656 98.429688 6.570312 98.429688 7.152344 L 98.429688 11.359375 C 98.429688 11.941406 98.902344 12.414062 99.484375 12.414062 L 103.710938 12.414062 C 104.292969 12.414062 104.765625 11.941406 104.765625 11.359375 Z M 87.871094 7.152344 C 87.871094 6.570312 87.398438 6.097656 86.8125 6.097656 L 82.589844 6.097656 C 82.007812 6.097656 81.535156 6.570312 81.535156 7.152344 L 81.535156 11.359375 C 81.535156 11.941406 82.007812 12.414062 82.589844 12.414062 L 86.8125 12.414062 C 87.398438 12.414062 87.871094 11.941406 87.871094 11.359375 Z M 94.207031 8.203125 L 94.207031 10.308594 C 94.207031 10.308594 92.09375 10.308594 92.09375 10.308594 C 92.09375 10.308594 92.09375 8.203125 92.09375 8.203125 Z M 85.757812 8.203125 L 85.757812 10.308594 C 85.757812 10.308594 83.644531 10.308594 83.644531 10.308594 C 83.644531 10.308594 83.644531 8.203125 83.644531 8.203125 Z M 102.65625 8.203125 L 102.65625 10.308594 C 102.65625 10.308594 100.542969 10.308594 100.542969 10.308594 C 100.542969 10.308594 100.542969 8.203125 100.542969 8.203125 Z M 102.65625 8.203125 " fill-opacity="1" fill-rule="evenodd"/></g><path fill="#9fd9f6" d="M 49.667969 27.058594 C 49.667969 27.300781 49.464844 27.492188 49.210938 27.492188 L 12.050781 27.492188 C 11.796875 27.492188 11.589844 27.300781 11.589844 27.058594 L 11.589844 10.535156 C 11.589844 10.296875 11.796875 10.101562 12.050781 10.101562 L 49.210938 10.101562 C 49.464844 10.101562 49.667969 10.296875 49.667969 10.535156 Z M 49.667969 27.058594 " fill-opacity="1" fill-rule="nonzero"/><g clip-path="url(#ed4ecd18f7)"><path fill="#21184d" d="M 53.578125 32.183594 L 7.679688 32.183594 C 6.847656 32.183594 6.167969 31.5 6.167969 30.660156 L 6.167969 7.730469 C 6.167969 6.890625 6.847656 6.207031 7.679688 6.207031 L 53.578125 6.207031 C 54.414062 6.207031 55.089844 6.890625 55.089844 7.730469 L 55.089844 30.660156 C 55.089844 31.5 54.414062 32.183594 53.578125 32.183594 Z M 8 30.339844 L 53.257812 30.339844 L 53.257812 8.050781 L 8 8.050781 Z M 8 30.339844 " fill-opacity="1" fill-rule="nonzero"/></g><g clip-path="url(#afa29d6154)"><path fill="#ffffff" d="M 6.789062 15.261719 L 2.59375 15.261719 C 2.261719 15.261719 1.996094 15.53125 1.996094 15.863281 L 1.996094 24.132812 C 1.996094 24.464844 2.261719 24.734375 2.59375 24.734375 L 6.789062 24.734375 Z M 6.789062 15.261719 " fill-opacity="1" fill-rule="nonzero"/></g><g clip-path="url(#4b1c889927)"><path fill="#21184d" d="M 6.789062 25.652344 L 2.59375 25.652344 C 1.757812 25.652344 1.082031 24.972656 1.082031 24.132812 L 1.082031 15.863281 C 1.082031 15.023438 1.757812 14.339844 2.59375 14.339844 L 6.789062 14.339844 C 7.296875 14.339844 7.707031 14.753906 7.707031 15.261719 L 7.707031 24.730469 C 7.707031 25.242188 7.296875 25.652344 6.789062 25.652344 Z M 2.914062 23.808594 L 5.875 23.808594 L 5.875 16.183594 L 2.914062 16.183594 Z M 2.914062 23.808594 " fill-opacity="1" fill-rule="nonzero"/></g><path fill="#ffffff" d="M 54.230469 16.40625 L 13.558594 16.40625 L 2.773438 5.234375 L 54.230469 5.234375 Z M 54.230469 16.40625 " fill-opacity="1" fill-rule="nonzero"/><g clip-path="url(#b8eeb7fa60)"><path fill="#21184d" d="M 54.230469 17.328125 L 13.558594 17.328125 C 13.308594 17.328125 13.074219 17.226562 12.898438 17.050781 L 2.117188 5.875 C 1.859375 5.609375 1.785156 5.214844 1.929688 4.875 C 2.074219 4.535156 2.40625 4.3125 2.773438 4.3125 L 54.230469 4.3125 C 54.738281 4.3125 55.148438 4.722656 55.148438 5.234375 L 55.148438 16.40625 C 55.148438 16.917969 54.738281 17.328125 54.230469 17.328125 Z M 13.945312 15.484375 L 53.316406 15.484375 L 53.316406 6.15625 L 4.941406 6.15625 Z M 13.945312 15.484375 " fill-opacity="1" fill-rule="nonzero"/></g><path fill="#ffffff" d="M 32.929688 48.796875 L 32.929688 31.695312 L 27.890625 31.695312 L 27.890625 53.867188 L 49.824219 53.867188 L 49.824219 48.796875 Z M 32.929688 48.796875 " fill-opacity="1" fill-rule="nonzero"/><path fill="#21184d" d="M 49.824219 54.789062 L 27.890625 54.789062 C 27.386719 54.789062 26.976562 54.375 26.976562 53.867188 L 26.976562 31.695312 C 26.976562 31.183594 27.386719 30.773438 27.890625 30.773438 L 32.929688 30.773438 C 33.4375 30.773438 33.847656 31.183594 33.847656 31.695312 L 33.847656 47.875 L 49.828125 47.875 C 50.332031 47.875 50.742188 48.285156 50.742188 48.796875 L 50.742188 53.867188 C 50.742188 54.375 50.332031 54.789062 49.824219 54.789062 Z M 28.808594 52.945312 L 48.910156 52.945312 L 48.910156 49.71875 L 32.929688 49.71875 C 32.425781 49.71875 32.015625 49.304688 32.015625 48.796875 L 32.015625 32.617188 L 28.808594 32.617188 Z M 28.808594 52.945312 " fill-opacity="1" fill-rule="nonzero"/><path fill="#ffffff" d="M 36.707031 49.882812 C 36.707031 50.285156 36.667969 50.683594 36.589844 51.074219 C 36.511719 51.46875 36.394531 51.851562 36.242188 52.222656 C 36.089844 52.59375 35.902344 52.945312 35.683594 53.277344 C 35.460938 53.609375 35.210938 53.917969 34.925781 54.203125 C 34.644531 54.488281 34.339844 54.742188 34.007812 54.964844 C 33.675781 55.1875 33.328125 55.375 32.957031 55.527344 C 32.589844 55.679688 32.210938 55.796875 31.820312 55.875 C 31.429688 55.953125 31.035156 55.992188 30.636719 55.992188 C 30.234375 55.992188 29.839844 55.953125 29.449219 55.875 C 29.058594 55.796875 28.679688 55.679688 28.3125 55.527344 C 27.941406 55.375 27.59375 55.1875 27.261719 54.964844 C 26.929688 54.742188 26.625 54.488281 26.34375 54.203125 C 26.058594 53.917969 25.808594 53.609375 25.585938 53.277344 C 25.367188 52.945312 25.179688 52.59375 25.027344 52.222656 C 24.875 51.851562 24.757812 51.46875 24.679688 51.074219 C 24.601562 50.683594 24.5625 50.285156 24.5625 49.882812 C 24.5625 49.480469 24.601562 49.085938 24.679688 48.691406 C 24.757812 48.296875 24.875 47.914062 25.027344 47.546875 C 25.179688 47.175781 25.367188 46.824219 25.585938 46.488281 C 25.808594 46.15625 26.058594 45.847656 26.34375 45.5625 C 26.625 45.28125 26.929688 45.027344 27.261719 44.804688 C 27.59375 44.582031 27.941406 44.390625 28.3125 44.238281 C 28.679688 44.085938 29.058594 43.96875 29.449219 43.890625 C 29.839844 43.8125 30.234375 43.773438 30.636719 43.773438 C 31.035156 43.773438 31.429688 43.8125 31.820312 43.890625 C 32.210938 43.96875 32.589844 44.085938 32.957031 44.238281 C 33.328125 44.390625 33.675781 44.582031 34.007812 44.804688 C 34.339844 45.027344 34.644531 45.28125 34.925781 45.5625 C 35.210938 45.847656 35.460938 46.15625 35.683594 46.488281 C 35.902344 46.824219 36.089844 47.175781 36.242188 47.546875 C 36.394531 47.914062 36.511719 48.296875 36.589844 48.691406 C 36.667969 49.085938 36.707031 49.480469 36.707031 49.882812 Z M 36.707031 49.882812 " fill-opacity="1" fill-rule="nonzero"/><path fill="#21184d" d="M 30.636719 56.914062 C 26.78125 56.914062 23.648438 53.761719 23.648438 49.882812 C 23.648438 46.007812 26.78125 42.851562 30.636719 42.851562 C 34.488281 42.851562 37.621094 46.007812 37.621094 49.882812 C 37.621094 53.761719 34.488281 56.914062 30.636719 56.914062 Z M 30.636719 44.695312 C 27.792969 44.695312 25.480469 47.023438 25.480469 49.882812 C 25.480469 52.742188 27.792969 55.070312 30.636719 55.070312 C 33.476562 55.070312 35.789062 52.742188 35.789062 49.882812 C 35.789062 47.023438 33.476562 44.695312 30.636719 44.695312 Z M 30.636719 44.695312 " fill-opacity="1" fill-rule="nonzero"/><g clip-path="url(#6b6786eaac)"><path fill="#ffffff" d="M 48.988281 45.757812 L 54.523438 45.757812 L 54.523438 57.042969 L 48.988281 57.042969 Z M 48.988281 45.757812 " fill-opacity="1" fill-rule="nonzero"/></g><g clip-path="url(#b5be130612)"><path fill="#21184d" d="M 54.523438 57.964844 L 48.988281 57.964844 C 48.484375 57.964844 48.074219 57.554688 48.074219 57.042969 L 48.074219 45.757812 C 48.074219 45.25 48.484375 44.835938 48.988281 44.835938 L 54.523438 44.835938 C 55.027344 44.835938 55.4375 45.25 55.4375 45.757812 L 55.4375 57.042969 C 55.4375 57.554688 55.027344 57.964844 54.523438 57.964844 Z M 49.90625 56.121094 L 53.605469 56.121094 L 53.605469 46.679688 L 49.90625 46.679688 Z M 49.90625 56.121094 " fill-opacity="1" fill-rule="nonzero"/></g></svg>