<svg xmlns="http://www.w3.org/2000/svg" xmlns:xlink="http://www.w3.org/1999/xlink" width="253" zoomAndPan="magnify" viewBox="0 0 189.75 62.999997" height="84" preserveAspectRatio="xMidYMid meet" version="1.0"><defs><clipPath id="47b28d39a2"><path d="M 70.128906 0.0429688 L 124.878906 0.0429688 L 124.878906 58.542969 L 70.128906 58.542969 Z M 70.128906 0.0429688 " clip-rule="nonzero"/></clipPath><clipPath id="198b48d0a5"><path d="M 177 34 L 189.5 34 L 189.5 59 L 177 59 Z M 177 34 " clip-rule="nonzero"/></clipPath><clipPath id="a26f35593a"><path d="M 173 52 L 188 52 L 188 62.957031 L 173 62.957031 Z M 173 52 " clip-rule="nonzero"/></clipPath><clipPath id="9d6977fa85"><path d="M 139.371094 17 L 162 17 L 162 44 L 139.371094 44 Z M 139.371094 17 " clip-rule="nonzero"/></clipPath><clipPath id="971ce49fe6"><path d="M 180 59 L 184 59 L 184 62.957031 L 180 62.957031 Z M 180 59 " clip-rule="nonzero"/></clipPath><clipPath id="d3b2bd7094"><path d="M 5 6 L 54.75 6 L 54.75 33 L 5 33 Z M 5 6 " clip-rule="nonzero"/></clipPath><clipPath id="20d3274c9c"><path d="M 0 4.6875 L 54.75 4.6875 L 54.75 18 L 0 18 Z M 0 4.6875 " clip-rule="nonzero"/></clipPath><clipPath id="7e7d4e4119"><path d="M 47 45 L 54.75 45 L 54.75 58.6875 L 47 58.6875 Z M 47 45 " clip-rule="nonzero"/></clipPath></defs><g clip-path="url(#47b28d39a2)"><path fill="#ff5757" d="M 70.34375 4.953125 L 70.34375 55.191406 C 70.34375 56.082031 70.695312 56.933594 71.320312 57.558594 C 71.941406 58.1875 72.789062 58.542969 73.671875 58.542969 C 79.382812 58.542969 94.5625 58.542969 100.277344 58.542969 C 102.113281 58.542969 103.601562 57.042969 103.601562 55.191406 L 103.601562 51.828125 L 122.445312 51.828125 C 123.058594 51.828125 123.554688 51.328125 123.554688 50.710938 L 123.554688 39.546875 C 123.554688 39.253906 123.4375 38.96875 123.230469 38.757812 C 123.023438 38.550781 122.742188 38.429688 122.445312 38.429688 L 103.601562 38.429688 L 103.601562 4.953125 C 103.601562 4.066406 103.25 3.214844 102.628906 2.585938 C 102.003906 1.957031 101.15625 1.605469 100.277344 1.605469 C 94.5625 1.605469 79.382812 1.605469 73.671875 1.605469 C 72.789062 1.605469 71.941406 1.957031 71.320312 2.585938 C 70.695312 3.214844 70.34375 4.066406 70.34375 4.953125 Z M 101.382812 32.863281 L 72.5625 32.863281 L 72.5625 55.191406 C 72.5625 55.488281 72.679688 55.773438 72.886719 55.980469 C 73.09375 56.191406 73.378906 56.308594 73.671875 56.308594 L 100.277344 56.308594 C 100.886719 56.308594 101.382812 55.808594 101.382812 55.191406 L 101.382812 51.828125 L 93.351562 51.828125 C 91.539062 53.890625 88.890625 55.191406 85.941406 55.191406 C 80.476562 55.191406 76.039062 50.722656 76.039062 45.222656 C 76.039062 39.71875 80.476562 35.25 85.941406 35.25 C 88.800781 35.25 91.382812 36.472656 93.191406 38.429688 L 101.382812 38.429688 C 101.382812 38.429688 101.382812 32.863281 101.382812 32.863281 Z M 89.628906 38.429688 C 88.53125 37.828125 87.277344 37.484375 85.941406 37.484375 C 81.699219 37.484375 78.257812 40.949219 78.257812 45.222656 C 78.257812 49.492188 81.699219 52.960938 85.941406 52.960938 C 87.40625 52.960938 88.773438 52.546875 89.9375 51.828125 L 86.65625 51.828125 C 84.210938 51.988281 81.765625 50.761719 80.457031 48.480469 C 78.621094 45.277344 79.714844 41.179688 82.894531 39.328125 C 84.078125 38.640625 85.394531 38.347656 86.664062 38.429688 Z M 86.65625 51.828125 Z M 112.46875 40.664062 L 121.339844 40.664062 C 121.339844 40.664062 121.339844 49.59375 121.339844 49.59375 L 112.46875 49.59375 Z M 118.121094 34 C 122.179688 29.59375 124.664062 23.695312 124.664062 17.21875 C 124.664062 10.757812 122.195312 4.871094 118.152344 0.46875 C 117.738281 0.0195312 117.035156 -0.0117188 116.585938 0.410156 C 116.136719 0.828125 116.109375 1.535156 116.523438 1.984375 C 120.199219 5.988281 122.445312 11.339844 122.445312 17.21875 C 122.445312 23.109375 120.1875 28.472656 116.496094 32.480469 C 116.078125 32.933594 116.105469 33.640625 116.554688 34.058594 C 117 34.476562 117.703125 34.453125 118.121094 34 Z M 113.773438 29.601562 C 116.714844 26.320312 118.503906 21.980469 118.503906 17.21875 C 118.503906 12.472656 116.726562 8.144531 113.804688 4.871094 C 113.394531 4.414062 112.695312 4.375 112.238281 4.789062 C 111.785156 5.199219 111.746094 5.90625 112.15625 6.363281 C 114.726562 9.242188 116.289062 13.046875 116.289062 17.21875 C 116.289062 21.402344 114.714844 25.222656 112.128906 28.105469 C 111.71875 28.5625 111.753906 29.265625 112.207031 29.679688 C 112.660156 30.09375 113.363281 30.058594 113.773438 29.601562 Z M 90.300781 22.816406 C 90.300781 22.199219 89.800781 21.699219 89.191406 21.699219 L 84.757812 21.699219 C 84.144531 21.699219 83.648438 22.199219 83.648438 22.816406 L 83.648438 27.28125 C 83.648438 27.898438 84.144531 28.398438 84.757812 28.398438 L 89.191406 28.398438 C 89.800781 28.398438 90.300781 27.898438 90.300781 27.28125 Z M 81.429688 22.816406 C 81.429688 22.199219 80.933594 21.699219 80.320312 21.699219 L 75.886719 21.699219 C 75.277344 21.699219 74.78125 22.199219 74.78125 22.816406 L 74.78125 27.28125 C 74.78125 27.898438 75.277344 28.398438 75.886719 28.398438 L 80.320312 28.398438 C 80.933594 28.398438 81.429688 27.898438 81.429688 27.28125 Z M 99.167969 22.816406 C 99.167969 22.199219 98.671875 21.699219 98.058594 21.699219 L 93.625 21.699219 C 93.011719 21.699219 92.515625 22.199219 92.515625 22.816406 L 92.515625 27.28125 C 92.515625 27.898438 93.011719 28.398438 93.625 28.398438 L 98.058594 28.398438 C 98.671875 28.398438 99.167969 27.898438 99.167969 27.28125 Z M 88.082031 23.933594 L 88.082031 26.164062 C 88.082031 26.164062 85.863281 26.164062 85.863281 26.164062 C 85.863281 26.164062 85.863281 23.933594 85.863281 23.933594 Z M 79.214844 23.933594 L 79.214844 26.164062 C 79.214844 26.164062 76.996094 26.164062 76.996094 26.164062 C 76.996094 26.164062 76.996094 23.933594 76.996094 23.933594 Z M 96.949219 23.933594 L 96.949219 26.164062 C 96.949219 26.164062 94.734375 26.164062 94.734375 26.164062 C 94.734375 26.164062 94.734375 23.933594 94.734375 23.933594 Z M 109.433594 25.183594 C 111.25 23.039062 112.347656 20.257812 112.347656 17.21875 C 112.347656 14.199219 111.261719 11.429688 109.460938 9.289062 C 109.066406 8.820312 108.367188 8.761719 107.898438 9.160156 C 107.433594 9.558594 107.375 10.261719 107.769531 10.734375 C 109.242188 12.484375 110.132812 14.75 110.132812 17.21875 C 110.132812 19.707031 109.234375 21.980469 107.746094 23.734375 C 107.347656 24.203125 107.40625 24.910156 107.871094 25.308594 C 108.335938 25.710938 109.035156 25.652344 109.433594 25.183594 Z M 99.167969 15 C 99.167969 14.386719 98.671875 13.886719 98.058594 13.886719 L 93.625 13.886719 C 93.011719 13.886719 92.515625 14.386719 92.515625 15 L 92.515625 19.46875 C 92.515625 20.082031 93.011719 20.582031 93.625 20.582031 L 98.058594 20.582031 C 98.671875 20.582031 99.167969 20.082031 99.167969 19.46875 Z M 81.429688 15 C 81.429688 14.386719 80.933594 13.886719 80.320312 13.886719 L 75.886719 13.886719 C 75.277344 13.886719 74.78125 14.386719 74.78125 15 L 74.78125 19.46875 C 74.78125 20.082031 75.277344 20.582031 75.886719 20.582031 L 80.320312 20.582031 C 80.933594 20.582031 81.429688 20.082031 81.429688 19.46875 Z M 90.300781 15 C 90.300781 14.386719 89.800781 13.886719 89.191406 13.886719 L 84.757812 13.886719 C 84.144531 13.886719 83.648438 14.386719 83.648438 15 L 83.648438 19.46875 C 83.648438 20.082031 84.144531 20.582031 84.757812 20.582031 L 89.191406 20.582031 C 89.800781 20.582031 90.300781 20.082031 90.300781 19.46875 Z M 88.082031 16.117188 L 88.082031 18.351562 C 88.082031 18.351562 85.863281 18.351562 85.863281 18.351562 C 85.863281 18.351562 85.863281 16.117188 85.863281 16.117188 Z M 79.214844 16.117188 L 79.214844 18.351562 C 79.214844 18.351562 76.996094 18.351562 76.996094 18.351562 C 76.996094 18.351562 76.996094 16.117188 76.996094 16.117188 Z M 96.949219 16.117188 L 96.949219 18.351562 C 96.949219 18.351562 94.734375 18.351562 94.734375 18.351562 C 94.734375 18.351562 94.734375 16.117188 94.734375 16.117188 Z M 90.300781 7.1875 C 90.300781 6.570312 89.800781 6.070312 89.191406 6.070312 L 84.757812 6.070312 C 84.144531 6.070312 83.648438 6.570312 83.648438 7.1875 L 83.648438 11.652344 C 83.648438 12.269531 84.144531 12.769531 84.757812 12.769531 L 89.191406 12.769531 C 89.800781 12.769531 90.300781 12.269531 90.300781 11.652344 Z M 99.167969 7.1875 C 99.167969 6.570312 98.671875 6.070312 98.058594 6.070312 L 93.625 6.070312 C 93.011719 6.070312 92.515625 6.570312 92.515625 7.1875 L 92.515625 11.652344 C 92.515625 12.269531 93.011719 12.769531 93.625 12.769531 L 98.058594 12.769531 C 98.671875 12.769531 99.167969 12.269531 99.167969 11.652344 Z M 81.429688 7.1875 C 81.429688 6.570312 80.933594 6.070312 80.320312 6.070312 L 75.886719 6.070312 C 75.277344 6.070312 74.78125 6.570312 74.78125 7.1875 L 74.78125 11.652344 C 74.78125 12.269531 75.277344 12.769531 75.886719 12.769531 L 80.320312 12.769531 C 80.933594 12.769531 81.429688 12.269531 81.429688 11.652344 Z M 88.082031 8.304688 L 88.082031 10.535156 C 88.082031 10.535156 85.863281 10.535156 85.863281 10.535156 C 85.863281 10.535156 85.863281 8.304688 85.863281 8.304688 Z M 79.214844 8.304688 L 79.214844 10.535156 C 79.214844 10.535156 76.996094 10.535156 76.996094 10.535156 C 76.996094 10.535156 76.996094 8.304688 76.996094 8.304688 Z M 96.949219 8.304688 L 96.949219 10.535156 C 96.949219 10.535156 94.734375 10.535156 94.734375 10.535156 C 94.734375 10.535156 94.734375 8.304688 94.734375 8.304688 Z M 96.949219 8.304688 " fill-opacity="1" fill-rule="evenodd"/></g><path fill="#282627" d="M 151.363281 53.929688 C 151.363281 53.929688 150.460938 55.277344 150.578125 56.1875 C 150.578125 56.1875 171.554688 58.335938 181.605469 56.660156 L 180.628906 53.171875 Z M 151.363281 53.929688 " fill-opacity="1" fill-rule="nonzero"/><path fill="#e2e0e0" d="M 188.480469 36.671875 L 182.753906 23.667969 C 182.4375 23.003906 182.003906 22.429688 181.453125 21.945312 C 180.898438 21.460938 180.273438 21.109375 179.574219 20.882812 L 179.574219 20.855469 L 179.378906 20.816406 C 179.0625 20.714844 178.742188 20.640625 178.414062 20.589844 L 178.273438 20.539062 C 177.867188 20.363281 177.4375 20.261719 176.992188 20.234375 L 149.785156 18.691406 C 148.894531 18.644531 148.367188 18.875 147.453125 19.3125 C 140.867188 21.5 140.863281 34.289062 140.230469 35.171875 L 144.363281 37.984375 C 147.929688 40.414062 149.828125 44.226562 149.402344 48.113281 L 149.011719 51.691406 C 148.839844 53.285156 150.25 54.6875 152.121094 54.769531 L 161.097656 55.171875 C 169.332031 56.730469 177.949219 55.714844 185.382812 52.308594 L 185.707031 42.777344 C 188.277344 41.660156 189.519531 39.027344 188.480469 36.671875 Z M 188.480469 36.671875 " fill-opacity="1" fill-rule="nonzero"/><path fill="#3c4d68" d="M 164.484375 25.953125 L 163.953125 24.648438 L 165.9375 21.457031 L 168.300781 24.613281 L 167.515625 25.941406 L 168.433594 27.039062 L 170.59375 49.597656 L 164.539062 54.800781 L 160.074219 49.738281 L 163.445312 27.050781 Z M 164.484375 25.953125 " fill-opacity="1" fill-rule="nonzero"/><path fill="#fea68a" d="M 161.273438 6.949219 L 165.632812 5.886719 L 169.058594 6.917969 C 169.058594 6.917969 170.230469 9.304688 169.964844 10.523438 C 169.964844 10.523438 169.964844 11.351562 170.523438 11.742188 C 170.523438 11.742188 171.859375 11.417969 172.308594 12.507812 C 172.757812 13.597656 171.273438 13.640625 171.273438 13.640625 C 171.382812 14.121094 171.359375 14.597656 171.207031 15.066406 C 171.054688 15.539062 170.792969 15.9375 170.421875 16.261719 C 169.6875 16.976562 168.828125 17.476562 167.847656 17.765625 C 167.847656 17.765625 168.574219 19.433594 168.234375 19.496094 L 168.300781 19.640625 L 168.1875 20.25 L 165.941406 21.460938 L 164.253906 20.820312 L 163.332031 18.726562 C 163.011719 18.445312 162.652344 18.246094 162.246094 18.121094 C 160.128906 17.523438 160.546875 16.175781 159.792969 14.050781 C 159.792969 14.050781 158.585938 14.5 157.863281 13.546875 C 157.136719 12.597656 157.863281 11.585938 158.613281 11.976562 L 160.890625 8.050781 Z M 161.273438 6.949219 " fill-opacity="1" fill-rule="nonzero"/><path fill="#161516" d="M 169.476562 19.554688 L 168.203125 20.445312 L 168.023438 18.421875 Z M 169.476562 19.554688 " fill-opacity="1" fill-rule="nonzero"/><path fill="#161516" d="M 161.417969 19.683594 L 163.324219 20.527344 L 163.082031 17.964844 Z M 161.417969 19.683594 " fill-opacity="1" fill-rule="nonzero"/><path fill="#eeeeee" d="M 169.402344 19.582031 L 168.023438 18.488281 L 168.023438 18.167969 C 168.023438 18.167969 169.058594 18.277344 170.535156 19.441406 C 172.011719 20.601562 172.007812 21.722656 172.007812 21.722656 L 168.554688 24.957031 L 165.941406 21.464844 Z M 169.402344 19.582031 " fill-opacity="1" fill-rule="nonzero"/><path fill="#eeeeee" d="M 162.019531 19.539062 L 163.121094 18.382812 L 163.082031 17.964844 C 163.082031 17.964844 162.160156 18.203125 160.886719 19.53125 C 159.613281 20.855469 159.800781 21.964844 159.800781 21.964844 L 163.566406 25.253906 L 165.9375 21.464844 Z M 162.019531 19.539062 " fill-opacity="1" fill-rule="nonzero"/><path fill="#fccb7c" d="M 160.902344 33.109375 L 165.210938 33.109375 C 165.3125 33.109375 165.402344 33.144531 165.472656 33.21875 C 165.546875 33.289062 165.582031 33.375 165.582031 33.476562 C 165.582031 33.578125 165.546875 33.667969 165.472656 33.738281 C 165.402344 33.808594 165.3125 33.847656 165.210938 33.847656 L 160.902344 33.847656 C 160.800781 33.847656 160.714844 33.808594 160.640625 33.738281 C 160.570312 33.667969 160.535156 33.578125 160.535156 33.476562 C 160.535156 33.375 160.570312 33.289062 160.640625 33.21875 C 160.714844 33.144531 160.800781 33.109375 160.902344 33.109375 Z M 160.902344 33.109375 " fill-opacity="1" fill-rule="nonzero"/><path fill="#3c4d68" d="M 179.300781 22.609375 L 175.382812 21.242188 C 175.253906 21.210938 175.140625 21.152344 175.042969 21.070312 C 174.941406 20.988281 174.863281 20.886719 174.804688 20.769531 C 174.746094 20.652344 174.714844 20.53125 174.710938 20.398438 C 174.707031 20.269531 174.730469 20.144531 174.777344 20.023438 C 174.921875 19.773438 175.128906 19.601562 175.398438 19.503906 C 175.667969 19.40625 175.9375 19.40625 176.207031 19.507812 L 180.125 20.875 C 180.683594 21.070312 180.953125 21.628906 180.726562 22.097656 C 180.582031 22.347656 180.378906 22.519531 180.105469 22.617188 C 179.835938 22.714844 179.566406 22.710938 179.300781 22.609375 Z M 179.300781 22.609375 " fill-opacity="1" fill-rule="nonzero"/><path fill="#eeeeee" d="M 177.125 34.027344 L 173.535156 34.878906 L 169.945312 34.027344 L 169.945312 31.824219 L 177.125 31.824219 Z M 177.125 34.027344 " fill-opacity="1" fill-rule="nonzero"/><path fill="#eeeeee" d="M 159.585938 34.152344 L 155.996094 35.007812 L 152.40625 34.152344 L 152.40625 31.949219 L 159.585938 31.949219 Z M 159.585938 34.152344 " fill-opacity="1" fill-rule="nonzero"/><path fill="#4a4847" d="M 158.007812 23.035156 L 152.085938 13.078125 C 151.996094 12.921875 151.960938 12.753906 151.980469 12.578125 C 152.003906 12.398438 152.074219 12.242188 152.199219 12.113281 L 145.671875 2.21875 C 145.617188 2.128906 145.582031 2.035156 145.566406 1.929688 C 145.554688 1.828125 145.566406 1.726562 145.597656 1.625 C 145.628906 1.527344 145.679688 1.441406 145.753906 1.363281 C 145.824219 1.289062 145.90625 1.230469 146.003906 1.191406 C 146.214844 1.089844 146.429688 1.066406 146.65625 1.117188 C 146.882812 1.171875 147.066406 1.292969 147.207031 1.476562 L 153.707031 11.347656 L 157.070312 9.878906 C 157.324219 9.765625 157.585938 9.746094 157.855469 9.820312 C 158.125 9.894531 158.339844 10.046875 158.5 10.277344 L 164.425781 20.242188 C 164.484375 20.351562 164.519531 20.472656 164.53125 20.597656 C 164.539062 20.722656 164.523438 20.84375 164.476562 20.960938 C 164.433594 21.082031 164.363281 21.183594 164.273438 21.273438 C 164.183594 21.359375 164.078125 21.425781 163.960938 21.464844 L 159.4375 23.441406 C 159.183594 23.554688 158.917969 23.574219 158.648438 23.496094 C 158.378906 23.421875 158.167969 23.265625 158.007812 23.035156 Z M 158.007812 23.035156 " fill-opacity="1" fill-rule="nonzero"/><path fill="#282627" d="M 167.152344 9.34375 C 167.460938 9 167.847656 8.828125 168.308594 8.820312 C 168.453125 8.820312 168.492188 9.011719 168.34375 9.015625 C 167.945312 9.015625 167.609375 9.164062 167.339844 9.457031 C 167.246094 9.558594 167.0625 9.441406 167.152344 9.34375 Z M 167.152344 9.34375 " fill-opacity="1" fill-rule="nonzero"/><path fill="#282627" d="M 163.378906 8.761719 C 163.839844 8.753906 164.234375 8.914062 164.558594 9.238281 C 164.648438 9.335938 164.488281 9.492188 164.394531 9.378906 C 164.121094 9.089844 163.785156 8.945312 163.390625 8.945312 C 163.304688 8.980469 163.261719 8.949219 163.253906 8.859375 C 163.25 8.769531 163.292969 8.738281 163.378906 8.761719 Z M 163.378906 8.761719 " fill-opacity="1" fill-rule="nonzero"/><path fill="#a34a4a" d="M 166.445312 12.707031 C 166.445312 12.707031 166.585938 12.171875 167.105469 12.523438 C 167.625 12.875 167.035156 13.339844 166.464844 13.464844 C 165.894531 13.59375 166.140625 13.421875 166.445312 12.707031 Z M 166.445312 12.707031 " fill-opacity="1" fill-rule="nonzero"/><path fill="#a34a4a" d="M 171.429688 11.875 C 171.222656 11.894531 171.078125 12 171.003906 12.195312 C 170.953125 12.394531 171 12.566406 171.140625 12.714844 C 171.191406 12.773438 171.296875 12.699219 171.246094 12.640625 C 171.207031 12.59375 171.179688 12.542969 171.160156 12.484375 C 171.25 12.441406 171.339844 12.441406 171.433594 12.476562 C 171.527344 12.515625 171.589844 12.578125 171.625 12.671875 C 171.65625 12.839844 171.410156 12.925781 171.269531 12.960938 C 171.183594 12.988281 171.238281 13.09375 171.324219 13.066406 C 171.558594 12.996094 171.878906 12.816406 171.722656 12.566406 C 171.660156 12.46875 171.574219 12.398438 171.464844 12.359375 C 171.351562 12.320312 171.242188 12.320312 171.132812 12.359375 C 171.121094 12.265625 171.144531 12.179688 171.210938 12.109375 C 171.273438 12.035156 171.355469 12 171.449219 12 C 171.539062 11.980469 171.515625 11.867188 171.429688 11.875 Z M 171.429688 11.875 " fill-opacity="1" fill-rule="nonzero"/><path fill="#282627" d="M 159.042969 12.160156 C 159.183594 12.332031 159.507812 12.582031 160.046875 12.28125 C 160.582031 11.980469 161.679688 11.527344 162.320312 11.25 C 162.441406 11.78125 162.640625 12.503906 163.398438 12.597656 C 163.683594 12.621094 163.96875 12.613281 164.253906 12.566406 L 164.425781 12.546875 C 164.808594 12.542969 165.160156 12.445312 165.488281 12.25 C 166.023438 11.859375 166.027344 11.203125 165.992188 10.847656 L 165.992188 10.816406 C 165.992188 10.800781 165.992188 10.789062 165.992188 10.773438 C 166.082031 10.746094 166.171875 10.738281 166.265625 10.746094 C 166.265625 10.796875 166.265625 10.851562 166.265625 10.894531 C 166.265625 10.933594 166.265625 10.929688 166.265625 10.941406 C 166.25 11.214844 166.3125 11.46875 166.460938 11.699219 C 166.605469 11.929688 166.804688 12.09375 167.058594 12.195312 C 167.367188 12.289062 167.679688 12.332031 168 12.324219 L 168.167969 12.324219 C 168.40625 12.34375 168.644531 12.332031 168.878906 12.28125 L 168.988281 12.25 C 169.488281 12.058594 169.625 11.496094 169.6875 11.066406 C 169.855469 11.140625 170.023438 11.214844 170.144531 11.285156 C 170.429688 11.4375 170.253906 11.144531 170.144531 10.988281 C 170.226562 10.878906 170.296875 10.648438 170.269531 10.167969 C 170.207031 8.976562 170.25 6.003906 170.25 6.003906 C 168.65625 1.589844 165.878906 2.820312 165.261719 3.019531 L 165.085938 3.074219 C 159.410156 4.648438 157.375 6.335938 157.375 6.335938 C 159.074219 7.964844 158.378906 11.886719 158.378906 11.886719 Z M 159.484375 11.859375 C 159.359375 10.605469 160.675781 9.046875 160.941406 8.742188 C 160.976562 8.707031 161.003906 8.667969 161.027344 8.628906 C 163.0625 5.199219 165.6875 6.84375 165.6875 6.84375 C 168.726562 5.140625 169.730469 9.785156 169.917969 10.871094 L 169.726562 10.828125 L 169.726562 10.75 C 169.722656 10.730469 169.714844 10.714844 169.707031 10.699219 L 169.6875 10.679688 C 169.667969 10.65625 169.644531 10.640625 169.613281 10.632812 C 168.933594 10.414062 168.234375 10.308594 167.519531 10.316406 C 167.300781 10.320312 167.085938 10.339844 166.871094 10.382812 L 166.804688 10.394531 C 166.683594 10.40625 166.5625 10.4375 166.449219 10.484375 C 166.222656 10.425781 166 10.4375 165.78125 10.515625 C 165.753906 10.503906 165.726562 10.496094 165.695312 10.492188 C 165.199219 10.375 164.695312 10.351562 164.191406 10.421875 C 163.570312 10.492188 162.96875 10.636719 162.382812 10.859375 L 162.355469 10.859375 L 162.335938 10.886719 C 162.320312 10.894531 162.308594 10.90625 162.300781 10.921875 L 162.285156 10.960938 C 162.285156 10.960938 162.285156 10.976562 162.285156 11 Z M 159.484375 11.859375 " fill-opacity="1" fill-rule="nonzero"/><g clip-path="url(#198b48d0a5)"><path fill="#e2e0e0" d="M 183.484375 34.886719 L 182.414062 34.921875 C 179.570312 35.019531 177.332031 37.09375 177.445312 39.53125 L 178.132812 54.328125 C 178.246094 56.765625 180.667969 58.679688 183.515625 58.589844 L 184.582031 58.554688 C 186.824219 58.476562 188.1875 56.925781 188.78125 55.164062 C 188.824219 55.035156 188.894531 54.925781 188.992188 54.832031 C 189.203125 54.640625 189.570312 54.257812 189.554688 53.945312 L 188.867188 39.144531 C 188.753906 36.703125 186.332031 34.785156 183.484375 34.886719 Z M 183.484375 34.886719 " fill-opacity="1" fill-rule="nonzero"/></g><path fill="#353435" d="M 183.105469 52.628906 C 180.269531 51.625 177.542969 51.425781 177.542969 51.714844 C 177.546875 52.007812 179.222656 52.808594 181.753906 54 C 186.859375 56.390625 188.324219 56.457031 187.804688 55.335938 C 187.34375 54.347656 185.941406 53.632812 183.105469 52.628906 Z M 183.105469 52.628906 " fill-opacity="1" fill-rule="nonzero"/><path fill="#a34a4a" d="M 165.625 14.433594 C 165.957031 14.214844 166.398438 13.964844 166.765625 14.277344 C 166.917969 14.4375 167.011719 14.625 167.046875 14.84375 C 167.078125 15.058594 167.050781 15.265625 166.953125 15.464844 C 166.816406 15.773438 166.621094 16.03125 166.363281 16.246094 C 166.242188 16.363281 166.109375 16.464844 165.964844 16.554688 C 165.792969 16.652344 165.199219 16.84375 165.210938 16.394531 C 165.210938 16.339844 165.183594 16.3125 165.128906 16.3125 C 165.074219 16.3125 165.046875 16.339844 165.046875 16.394531 C 165.046875 16.839844 165.585938 16.898438 165.90625 16.773438 C 166.441406 16.523438 166.835938 16.128906 167.089844 15.59375 C 167.207031 15.363281 167.25 15.125 167.21875 14.867188 C 167.191406 14.613281 167.089844 14.390625 166.921875 14.195312 C 166.503906 13.78125 165.972656 14.007812 165.550781 14.292969 C 165.460938 14.351562 165.550781 14.496094 165.632812 14.433594 Z M 165.625 14.433594 " fill-opacity="1" fill-rule="nonzero"/><g clip-path="url(#a26f35593a)"><path fill="#fea68a" d="M 183.59375 53.019531 C 183.59375 53.019531 176.09375 50.292969 174.257812 54.875 C 172.421875 59.457031 176.675781 59.269531 176.441406 55.546875 C 176.441406 55.546875 177.40625 54.898438 178.257812 55.003906 C 178.257812 55.003906 174.828125 59.058594 177.589844 60.664062 C 180.355469 62.269531 181.695312 63.078125 183.535156 61.585938 C 185.371094 60.09375 187.988281 56.929688 187.21875 55.351562 C 186.445312 53.777344 183.59375 53.019531 183.59375 53.019531 Z M 183.59375 53.019531 " fill-opacity="1" fill-rule="nonzero"/></g><path fill="#3c4d68" d="M 158.480469 10.945312 C 158.480469 10.945312 154.601562 7.035156 159.316406 4.335938 C 164.03125 1.632812 169.648438 0.824219 170.367188 6.574219 C 170.367188 6.574219 172.84375 6.050781 173.363281 6.417969 C 173.886719 6.785156 174.890625 8.503906 172.953125 8.105469 C 171.015625 7.710938 169.867188 7.449219 169.867188 7.449219 C 169.867188 7.449219 169.171875 6.734375 167.820312 8.164062 C 166.472656 9.59375 164.832031 10.128906 162.941406 9.347656 L 161.050781 8.566406 C 161.050781 8.566406 159.234375 9.578125 158.480469 10.945312 Z M 158.480469 10.945312 " fill-opacity="1" fill-rule="nonzero"/><path fill="#fccb7c" d="M 165.3125 4.222656 C 165.3125 4.222656 165.082031 4.886719 164.113281 4.863281 C 164.113281 4.863281 164.15625 6.289062 166.082031 6.6875 C 166.273438 6.550781 166.433594 6.386719 166.566406 6.199219 C 166.703125 6.007812 166.800781 5.800781 166.859375 5.574219 C 166.921875 5.351562 166.945312 5.125 166.929688 4.890625 C 166.914062 4.660156 166.859375 4.4375 166.765625 4.222656 C 166.28125 4.445312 165.796875 4.445312 165.3125 4.222656 Z M 165.3125 4.222656 " fill-opacity="1" fill-rule="nonzero"/><path fill="#524e4d" d="M 178.546875 30.441406 C 178.425781 32.550781 178.925781 34.5 180.050781 36.292969 C 180.304688 36.6875 180.898438 37.265625 180.730469 37.769531 C 180.597656 38.171875 180.246094 38.460938 180.375 38.925781 C 180.453125 39.21875 180.558594 39.378906 180.417969 39.679688 C 180.300781 39.929688 180.144531 40.179688 180.015625 40.429688 C 179.792969 40.894531 179.605469 41.375 179.453125 41.871094 C 179.109375 43.03125 179.003906 44.214844 179.136719 45.417969 C 179.167969 45.6875 179.589844 45.691406 179.5625 45.417969 C 179.371094 43.726562 179.65625 42.117188 180.410156 40.589844 C 180.613281 40.1875 180.96875 39.746094 180.929688 39.273438 C 180.910156 39.054688 180.742188 38.851562 180.773438 38.632812 C 180.847656 38.40625 180.953125 38.195312 181.085938 38 C 181.277344 37.574219 181.144531 37.164062 180.910156 36.789062 C 180.328125 35.867188 179.769531 35 179.425781 33.957031 C 179.042969 32.808594 178.890625 31.628906 178.964844 30.421875 C 178.984375 30.148438 178.554688 30.148438 178.539062 30.421875 Z M 178.546875 30.441406 " fill-opacity="1" fill-rule="nonzero"/><path fill="#524e4d" d="M 176.839844 51.890625 C 176.652344 51.769531 176.527344 51.605469 176.464844 51.394531 C 176.402344 51.1875 176.414062 50.980469 176.5 50.777344 C 176.753906 50.363281 177.125 50.167969 177.613281 50.191406 C 177.691406 50.1875 177.753906 50.152344 177.792969 50.082031 C 177.835938 50.011719 177.835938 49.941406 177.796875 49.871094 C 177.566406 49.453125 177.464844 49.003906 177.496094 48.527344 C 177.507812 48.253906 177.085938 48.257812 177.070312 48.527344 C 177.039062 49.082031 177.160156 49.601562 177.429688 50.085938 L 177.613281 49.765625 C 176.988281 49.765625 176.3125 50.082031 176.074219 50.691406 C 175.976562 50.984375 175.976562 51.277344 176.078125 51.570312 C 176.183594 51.863281 176.363281 52.089844 176.625 52.257812 C 176.84375 52.417969 177.058594 52.046875 176.839844 51.890625 Z M 176.839844 51.890625 " fill-opacity="1" fill-rule="nonzero"/><path fill="#524e4d" d="M 181.152344 37.519531 C 181.363281 36.683594 181.742188 35.9375 182.300781 35.277344 C 182.476562 35.070312 182.175781 34.777344 182 34.976562 C 181.394531 35.691406 180.976562 36.5 180.742188 37.40625 C 180.707031 37.542969 180.757812 37.632812 180.894531 37.667969 C 181.03125 37.707031 181.117188 37.65625 181.15625 37.519531 Z M 181.152344 37.519531 " fill-opacity="1" fill-rule="nonzero"/><path fill="#4a4847" d="M 158.050781 60.152344 L 155.335938 60.445312 C 153.964844 60.59375 152.714844 59.761719 152.542969 58.585938 L 151.769531 53.320312 C 151.597656 52.144531 152.570312 51.0625 153.9375 50.925781 L 156.65625 50.621094 C 158.023438 50.476562 159.273438 51.308594 159.449219 52.480469 L 160.21875 57.75 C 160.394531 58.929688 159.421875 60 158.050781 60.152344 Z M 158.050781 60.152344 " fill-opacity="1" fill-rule="nonzero"/><g clip-path="url(#9d6977fa85)"><path fill="#f4f2f3" d="M 143.320312 42.746094 C 146.707031 44.164062 150.832031 42.945312 152.484375 40.042969 L 158.359375 28.253906 C 158.925781 27.148438 159.71875 26.246094 160.738281 25.542969 C 161.109375 24.898438 161.539062 24.578125 161.335938 23.921875 C 160.648438 21.683594 160.21875 18.792969 157.570312 17.695312 C 155.105469 16.664062 150.636719 17.613281 149.597656 18.171875 C 148.78125 18.609375 148.84375 19.609375 148.410156 20.398438 L 148.191406 21.226562 C 148.113281 21.535156 147.988281 21.824219 147.824219 22.097656 L 140.164062 34.898438 C 139.421875 36.203125 139.832031 37.5 140.230469 38.808594 C 140.71875 40.414062 141.457031 41.96875 143.320312 42.746094 Z M 143.320312 42.746094 " fill-opacity="1" fill-rule="nonzero"/></g><path fill="#353435" d="M 155.949219 20.570312 C 153.355469 19.175781 150.703125 18.566406 150.648438 18.863281 C 150.59375 19.160156 152.085938 20.1875 154.351562 21.726562 C 158.910156 24.824219 160.339844 25.101562 160.050781 23.917969 C 159.789062 22.871094 158.546875 21.96875 155.949219 20.570312 Z M 155.949219 20.570312 " fill-opacity="1" fill-rule="nonzero"/><path fill="#fea68a" d="M 154.78125 22.078125 C 154.78125 22.078125 148.644531 17.484375 152.652344 14.066406 C 156.660156 10.652344 158.324219 14.003906 154.308594 15.460938 C 154.308594 15.460938 154.058594 16.484375 154.535156 17.101562 C 154.535156 17.101562 157.296875 12.679688 160.1875 14.109375 C 163.078125 15.539062 164.507812 16.21875 163.753906 18.289062 C 163 20.359375 160.804688 23.753906 158.8125 23.847656 C 156.820312 23.945312 154.78125 22.078125 154.78125 22.078125 Z M 154.78125 22.078125 " fill-opacity="1" fill-rule="nonzero"/><path fill="#524e4d" d="M 149.1875 21.964844 C 150.183594 23.136719 151.40625 23.996094 152.847656 24.539062 C 153.101562 24.640625 153.210938 24.226562 152.960938 24.128906 C 151.589844 23.605469 150.433594 22.78125 149.488281 21.664062 C 149.3125 21.453125 149.011719 21.753906 149.1875 21.964844 Z M 149.1875 21.964844 " fill-opacity="1" fill-rule="nonzero"/><path fill="#a34a4a" d="M 157.042969 16.402344 C 157.75 15.488281 158.632812 14.804688 159.699219 14.351562 C 159.789062 14.308594 159.710938 14.171875 159.613281 14.214844 C 158.527344 14.679688 157.625 15.382812 156.90625 16.324219 C 156.839844 16.40625 156.980469 16.484375 157.042969 16.402344 Z M 157.042969 16.402344 " fill-opacity="1" fill-rule="nonzero"/><path fill="#a34a4a" d="M 158.855469 17.660156 C 159.226562 17.214844 159.632812 16.804688 160.078125 16.433594 C 160.496094 16.03125 160.957031 15.6875 161.457031 15.390625 C 161.550781 15.34375 161.457031 15.207031 161.378906 15.253906 C 160.898438 15.53125 160.457031 15.863281 160.054688 16.242188 C 159.578125 16.636719 159.140625 17.070312 158.742188 17.546875 C 158.679688 17.625 158.792969 17.738281 158.855469 17.660156 Z M 158.855469 17.660156 " fill-opacity="1" fill-rule="nonzero"/><path fill="#a34a4a" d="M 161.179688 18.875 C 161.855469 18.078125 162.519531 17.269531 163.160156 16.441406 C 163.222656 16.359375 163.109375 16.246094 163.046875 16.328125 C 162.402344 17.164062 161.742188 17.976562 161.066406 18.761719 C 161 18.839844 161.113281 18.957031 161.179688 18.875 Z M 161.179688 18.875 " fill-opacity="1" fill-rule="nonzero"/><g clip-path="url(#971ce49fe6)"><path fill="#a34a4a" d="M 183.570312 59.796875 C 182.898438 60.726562 182.035156 61.433594 180.988281 61.910156 C 180.898438 61.953125 180.988281 62.09375 181.074219 62.050781 C 182.140625 61.554688 183.019531 60.828125 183.710938 59.871094 C 183.769531 59.789062 183.632812 59.707031 183.570312 59.792969 Z M 183.570312 59.796875 " fill-opacity="1" fill-rule="nonzero"/></g><path fill="#a34a4a" d="M 181.707031 58.605469 C 181.34375 59.070312 180.9375 59.496094 180.496094 59.882812 C 180.101562 60.277344 179.667969 60.625 179.195312 60.917969 C 179.15625 60.945312 179.148438 60.980469 179.171875 61.023438 C 179.195312 61.066406 179.230469 61.074219 179.273438 61.054688 C 179.761719 60.753906 180.207031 60.402344 180.609375 59.996094 C 181.0625 59.597656 181.472656 59.160156 181.84375 58.683594 C 181.90625 58.601562 181.765625 58.519531 181.707031 58.605469 Z M 181.707031 58.605469 " fill-opacity="1" fill-rule="nonzero"/><path fill="#a34a4a" d="M 179.355469 57.425781 C 178.699219 58.25 178.0625 59.085938 177.441406 59.933594 C 177.382812 60.019531 177.523438 60.097656 177.582031 60.015625 C 178.191406 59.179688 178.820312 58.359375 179.46875 57.546875 C 179.53125 57.46875 179.417969 57.355469 179.355469 57.433594 Z M 179.355469 57.425781 " fill-opacity="1" fill-rule="nonzero"/><path fill="#9fd9f6" d="M 48.925781 27.59375 C 48.925781 27.835938 48.71875 28.027344 48.464844 28.027344 L 11.058594 28.027344 C 10.804688 28.027344 10.59375 27.835938 10.59375 27.59375 L 10.59375 10.957031 C 10.59375 10.71875 10.804688 10.523438 11.058594 10.523438 L 48.464844 10.523438 C 48.71875 10.523438 48.925781 10.71875 48.925781 10.957031 Z M 48.925781 27.59375 " fill-opacity="1" fill-rule="nonzero"/><g clip-path="url(#d3b2bd7094)"><path fill="#21184d" d="M 52.863281 32.75 L 6.660156 32.75 C 5.820312 32.75 5.136719 32.0625 5.136719 31.21875 L 5.136719 8.136719 C 5.136719 7.289062 5.820312 6.601562 6.660156 6.601562 L 52.863281 6.601562 C 53.703125 6.601562 54.382812 7.289062 54.382812 8.136719 L 54.382812 31.21875 C 54.382812 32.0625 53.703125 32.75 52.863281 32.75 Z M 6.980469 30.894531 L 52.539062 30.894531 L 52.539062 8.460938 L 6.980469 8.460938 Z M 6.980469 30.894531 " fill-opacity="1" fill-rule="nonzero"/></g><path fill="#ffffff" d="M 5.765625 15.71875 L 1.539062 15.71875 C 1.207031 15.71875 0.9375 15.988281 0.9375 16.324219 L 0.9375 24.648438 C 0.9375 24.980469 1.207031 25.25 1.539062 25.25 L 5.765625 25.25 Z M 5.765625 15.71875 " fill-opacity="1" fill-rule="nonzero"/><path fill="#21184d" d="M 5.765625 26.179688 L 1.539062 26.179688 C 0.699219 26.179688 0.015625 25.492188 0.015625 24.648438 L 0.015625 16.324219 C 0.015625 15.476562 0.699219 14.789062 1.539062 14.789062 L 5.765625 14.789062 C 6.273438 14.789062 6.6875 15.207031 6.6875 15.71875 L 6.6875 25.25 C 6.6875 25.761719 6.273438 26.179688 5.765625 26.179688 Z M 1.859375 24.324219 L 4.839844 24.324219 L 4.839844 16.644531 L 1.859375 16.644531 Z M 1.859375 24.324219 " fill-opacity="1" fill-rule="nonzero"/><path fill="#ffffff" d="M 53.519531 16.871094 L 12.574219 16.871094 L 1.71875 5.625 L 53.519531 5.625 Z M 53.519531 16.871094 " fill-opacity="1" fill-rule="nonzero"/><g clip-path="url(#20d3274c9c)"><path fill="#21184d" d="M 53.519531 17.796875 L 12.574219 17.796875 C 12.328125 17.796875 12.089844 17.695312 11.914062 17.515625 L 1.058594 6.269531 C 0.800781 6.003906 0.726562 5.605469 0.871094 5.261719 C 1.015625 4.917969 1.351562 4.695312 1.71875 4.695312 L 53.519531 4.695312 C 54.027344 4.695312 54.441406 5.109375 54.441406 5.625 L 54.441406 16.871094 C 54.441406 17.382812 54.027344 17.796875 53.519531 17.796875 Z M 12.964844 15.941406 L 52.597656 15.941406 L 52.597656 6.550781 L 3.902344 6.550781 Z M 12.964844 15.941406 " fill-opacity="1" fill-rule="nonzero"/></g><path fill="#ffffff" d="M 32.078125 49.472656 L 32.078125 32.257812 L 27.003906 32.257812 L 27.003906 54.578125 L 49.085938 54.578125 L 49.085938 49.472656 Z M 32.078125 49.472656 " fill-opacity="1" fill-rule="nonzero"/><path fill="#21184d" d="M 49.085938 55.507812 L 27.003906 55.507812 C 26.496094 55.507812 26.082031 55.089844 26.082031 54.578125 L 26.082031 32.257812 C 26.082031 31.746094 26.496094 31.332031 27.003906 31.332031 L 32.078125 31.332031 C 32.585938 31.332031 33 31.746094 33 32.257812 L 33 48.546875 L 49.085938 48.546875 C 49.59375 48.546875 50.007812 48.960938 50.007812 49.472656 L 50.007812 54.578125 C 50.007812 55.089844 49.59375 55.507812 49.085938 55.507812 Z M 27.925781 53.648438 L 48.164062 53.648438 L 48.164062 50.402344 L 32.078125 50.402344 C 31.566406 50.402344 31.15625 49.984375 31.15625 49.472656 L 31.15625 33.1875 L 27.925781 33.1875 Z M 27.925781 53.648438 " fill-opacity="1" fill-rule="nonzero"/><path fill="#ffffff" d="M 35.878906 50.566406 C 35.878906 50.972656 35.839844 51.371094 35.761719 51.765625 C 35.683594 52.164062 35.566406 52.546875 35.414062 52.921875 C 35.257812 53.292969 35.070312 53.648438 34.847656 53.984375 C 34.625 54.320312 34.371094 54.628906 34.085938 54.917969 C 33.804688 55.203125 33.496094 55.457031 33.160156 55.679688 C 32.828125 55.90625 32.476562 56.09375 32.105469 56.25 C 31.734375 56.402344 31.351562 56.519531 30.957031 56.597656 C 30.566406 56.679688 30.167969 56.71875 29.765625 56.71875 C 29.363281 56.71875 28.96875 56.679688 28.574219 56.597656 C 28.179688 56.519531 27.796875 56.402344 27.429688 56.25 C 27.058594 56.09375 26.703125 55.90625 26.371094 55.679688 C 26.039062 55.457031 25.730469 55.203125 25.445312 54.917969 C 25.160156 54.628906 24.90625 54.320312 24.683594 53.984375 C 24.460938 53.648438 24.273438 53.292969 24.121094 52.921875 C 23.96875 52.546875 23.851562 52.164062 23.773438 51.765625 C 23.695312 51.371094 23.65625 50.972656 23.65625 50.566406 C 23.65625 50.164062 23.695312 49.765625 23.773438 49.367188 C 23.851562 48.972656 23.96875 48.585938 24.121094 48.214844 C 24.273438 47.839844 24.460938 47.488281 24.683594 47.152344 C 24.90625 46.816406 25.160156 46.503906 25.445312 46.21875 C 25.730469 45.933594 26.039062 45.679688 26.371094 45.453125 C 26.703125 45.230469 27.058594 45.039062 27.429688 44.886719 C 27.796875 44.730469 28.179688 44.613281 28.574219 44.535156 C 28.96875 44.457031 29.363281 44.417969 29.765625 44.417969 C 30.167969 44.417969 30.566406 44.457031 30.957031 44.535156 C 31.351562 44.613281 31.734375 44.730469 32.105469 44.886719 C 32.476562 45.039062 32.828125 45.230469 33.160156 45.453125 C 33.496094 45.679688 33.804688 45.933594 34.085938 46.21875 C 34.371094 46.503906 34.625 46.816406 34.847656 47.152344 C 35.070312 47.488281 35.257812 47.839844 35.414062 48.214844 C 35.566406 48.585938 35.683594 48.972656 35.761719 49.367188 C 35.839844 49.765625 35.878906 50.164062 35.878906 50.566406 Z M 35.878906 50.566406 " fill-opacity="1" fill-rule="nonzero"/><path fill="#21184d" d="M 29.765625 57.644531 C 25.886719 57.644531 22.734375 54.46875 22.734375 50.566406 C 22.734375 46.664062 25.886719 43.488281 29.765625 43.488281 C 33.644531 43.488281 36.800781 46.664062 36.800781 50.566406 C 36.800781 54.46875 33.644531 57.644531 29.765625 57.644531 Z M 29.765625 45.347656 C 26.90625 45.347656 24.578125 47.6875 24.578125 50.566406 C 24.578125 53.445312 26.90625 55.789062 29.765625 55.789062 C 32.628906 55.789062 34.957031 53.445312 34.957031 50.566406 C 34.957031 47.6875 32.628906 45.347656 29.765625 45.347656 Z M 29.765625 45.347656 " fill-opacity="1" fill-rule="nonzero"/><path fill="#ffffff" d="M 48.242188 46.414062 L 53.8125 46.414062 L 53.8125 57.777344 L 48.242188 57.777344 Z M 48.242188 46.414062 " fill-opacity="1" fill-rule="nonzero"/><g clip-path="url(#7e7d4e4119)"><path fill="#21184d" d="M 53.8125 58.703125 L 48.242188 58.703125 C 47.734375 58.703125 47.320312 58.289062 47.320312 57.777344 L 47.320312 46.417969 C 47.320312 45.902344 47.734375 45.488281 48.242188 45.488281 L 53.8125 45.488281 C 54.320312 45.488281 54.734375 45.902344 54.734375 46.417969 L 54.734375 57.777344 C 54.734375 58.289062 54.320312 58.703125 53.8125 58.703125 Z M 49.164062 56.847656 L 52.890625 56.847656 L 52.890625 47.34375 L 49.164062 47.34375 Z M 49.164062 56.847656 " fill-opacity="1" fill-rule="nonzero"/></g></svg>